<?xml version="1.0" standalone="no"?>
<!DOCTYPE svg PUBLIC "-//W3C//DTD SVG 1.1//EN" "http://www.w3.org/Graphics/SVG/1.1/DTD/svg11.dtd" >
<svg xmlns="http://www.w3.org/2000/svg">
<metadata></metadata>
<defs>
<font id="avalon_extra_lightitalic" horiz-adv-x="503" >
<font-face units-per-em="1000" ascent="750" descent="-250" />
<missing-glyph horiz-adv-x="251" />
<glyph unicode="&#xfb01;" horiz-adv-x="427" d="M42 460l5 23h97l6 34q10 53 25.5 83t42.5 49q38 27 94 27q10 0 17 -1l-5 -25q-5 1 -16 1q-56 0 -87.5 -31.5t-45.5 -102.5l-7 -34h124l-5 -23h-123l-90 -460h-25l89 460h-96zM283 0l94 484h25l-94 -484h-25zM399 595l14 75h26l-15 -75h-25z" />
<glyph unicode="&#xfb02;" horiz-adv-x="427" d="M42 460l5 23h97l6 34q10 53 25.5 83t42.5 49q38 27 94 27q10 0 17 -1l-5 -25q-5 1 -16 1q-56 0 -87.5 -31.5t-45.5 -102.5l-7 -34h124l-5 -23h-123l-90 -460h-25l89 460h-96zM283 0l130 670h26l-131 -670h-25z" />
<glyph unicode="&#xfb03;" horiz-adv-x="661" d="M42 460l5 23h97l6 34q10 53 25.5 83t42.5 49q38 27 94 27q10 0 17 -1l-5 -25q-5 1 -16 1q-56 0 -87.5 -31.5t-45.5 -102.5l-7 -34h210l6 34q18 97 67 132q39 27 95 27q10 0 17 -1l-5 -25q-6 1 -16 1q-56 0 -87.5 -31.5t-45.5 -102.5l-7 -34h124l-5 -23h-123l-90 -460h-25 l89 460h-208l-90 -460h-25l89 460h-96zM517 0l94 484h25l-94 -484h-25zM632 595l15 75h26l-15 -75h-26z" />
<glyph unicode="&#xfb04;" horiz-adv-x="661" d="M42 460l5 23h97l6 34q10 53 25.5 83t42.5 49q38 27 94 27q10 0 17 -1l-5 -25q-5 1 -16 1q-56 0 -87.5 -31.5t-45.5 -102.5l-7 -34h210l6 34q18 97 67 132q39 27 95 27q10 0 17 -1l-5 -25q-6 1 -16 1q-56 0 -87.5 -31.5t-45.5 -102.5l-7 -34h124l-5 -23h-123l-90 -460h-25 l89 460h-208l-90 -460h-25l89 460h-96zM517 0l130 670h26l-131 -670h-25z" />
<glyph horiz-adv-x="1000" />
<glyph horiz-adv-x="1000" />
<glyph unicode="&#xd;" horiz-adv-x="1000" />
<glyph unicode=" "  horiz-adv-x="251" />
<glyph unicode="&#x09;" horiz-adv-x="251" />
<glyph unicode="&#xa0;" horiz-adv-x="251" />
<glyph unicode="!" horiz-adv-x="194" d="M36 0l15 76h27l-15 -76h-27zM64 146l102 524h27l-102 -524h-27z" />
<glyph unicode="&#x22;" horiz-adv-x="170" d="M83 498l34 172h26l-33 -172h-27zM157 498l33 172h27l-33 -172h-27z" />
<glyph unicode="#" d="M38 245l7 26h113l36 128h-112l7 26h112l52 183h27l-52 -183h127l52 183h27l-52 -183h116l-8 -26h-115l-37 -128h116l-7 -26h-116l-51 -183h-27l51 183h-127l-52 -183h-26l51 183h-112zM184 271h128l36 128h-127z" />
<glyph unicode="$" d="M54 156q0 14 3 37h25q-2 -26 -2 -34q0 -55 40.5 -91t102.5 -36q69 0 114.5 44.5t45.5 111.5q0 53 -34 89q-23 25 -88 60q-66 37 -90 62q-39 41 -39 101q0 70 47 114t125 46l24 121h26l-23 -121q59 -12 91 -47t32 -87q0 -9 -4 -39h-25q3 19 3 35q0 50 -35.5 81.5 t-92.5 31.5q-61 0 -101 -38t-40 -96q0 -45 31 -81q14 -17 28.5 -26.5t54.5 -31.5q76 -40 106.5 -79t30.5 -95q0 -77 -51 -129t-129 -52h-9l-24 -126h-27l25 126q-61 8 -101 50t-40 99z" />
<glyph unicode="%" horiz-adv-x="763" d="M91 512q0 71 48 120.5t116 49.5q63 0 102.5 -40t39.5 -103q0 -72 -47 -122t-115 -50q-64 0 -104 40t-40 105zM116 510q0 -53 33 -86.5t85 -33.5q57 0 97.5 44t40.5 106q0 52 -32.5 85.5t-83.5 33.5q-58 0 -99 -44t-41 -105zM166 0l439 670h27l-440 -670h-26zM399 133 q0 71 48 120.5t116 49.5q63 0 103 -40t40 -103q0 -72 -47 -122t-115 -50q-64 0 -104.5 40t-40.5 105zM424 131q0 -53 33 -86.5t85 -33.5q58 0 98.5 44t40.5 106q0 52 -33 85.5t-84 33.5q-58 0 -99 -44t-41 -105z" />
<glyph unicode="&#x26;" horiz-adv-x="665" d="M22 151q0 77 50.5 132t163.5 101q-46 58 -59 84.5t-13 61.5q0 64 44 108t108 44q59 0 97.5 -36t38.5 -91q0 -60 -41.5 -104t-132.5 -79l147 -168l141 231h30l-153 -252l155 -178l-19 -17l-150 173q-56 -82 -87 -110q-63 -62 -147 -62q-79 0 -126 44t-47 118zM50 150 q0 -61 40 -98.5t103 -37.5q45 0 80 18t71 60q38 45 66 89l-156 182q-80 -32 -122 -61q-82 -58 -82 -152zM191 532q0 -44 23 -77q45 -61 47 -61q3 0 58 27q37 18 47.5 25t23.5 22q35 38 35 86q0 44 -31 73.5t-77 29.5q-52 0 -89 -36.5t-37 -88.5z" />
<glyph unicode="'" horiz-adv-x="96" d="M83 498l34 172h26l-33 -172h-27z" />
<glyph unicode="(" horiz-adv-x="319" d="M34 172q0 172 93 308.5t256 201.5l-6 -29q-144 -59 -230 -189.5t-86 -289.5q0 -129 58 -229q33 -58 97 -117l-4 -26q-178 141 -178 370z" />
<glyph unicode=")" horiz-adv-x="319" d="M-67 -199l6 29q145 60 230.5 190t85.5 290q0 128 -57 229q-33 57 -98 116l4 26q178 -139 178 -370q0 -172 -93.5 -308.5t-255.5 -201.5z" />
<glyph unicode="*" horiz-adv-x="390" d="M127 589l13 23l102 -56l22 114l27 -5l-22 -114l113 14l4 -26l-115 -15l51 -105l-25 -12l-49 106l-86 -80l-19 21l86 78z" />
<glyph unicode="+" d="M61 322v26h194v187h26v-187h194v-26h-194v-187h-26v187h-194z" />
<glyph unicode="," horiz-adv-x="168" d="M-33 -63l86 139h28l-87 -139h-27z" />
<glyph unicode="-" horiz-adv-x="225" d="M-3 236l5 25h224l-4 -25h-225z" />
<glyph unicode="." horiz-adv-x="168" d="M22 0l15 76h27l-15 -76h-27z" />
<glyph unicode="/" horiz-adv-x="422" d="M-110 -186l531 856h30l-531 -856h-30z" />
<glyph unicode="0" d="M25 167q0 36 7 72l39 198q17 83 35.5 125t51.5 71q57 49 148 49t148 -47.5t57 -123.5q0 -39 -11 -97l-39 -198q-23 -119 -70 -167q-56 -61 -163 -61q-91 0 -147 49.5t-56 129.5zM51 163q0 -67 49.5 -108.5t128.5 -41.5q88 0 137 48t69 155l38 198q11 55 11 95 q0 67 -49 107.5t-130 40.5q-89 0 -136.5 -50.5t-70.5 -169.5l-39 -198q-8 -45 -8 -76z" />
<glyph unicode="1" d="M112 374l271 296h27l-131 -670h-26l121 623l-244 -263z" />
<glyph unicode="2" d="M-3 0l5 25l311 259q84 71 110 104q47 58 47 119q0 67 -44.5 108t-116.5 41q-74 0 -125 -49.5t-68 -138.5h-28q19 103 75.5 158t144.5 55q84 0 136.5 -48t52.5 -125q0 -61 -36 -114t-132 -132l-287 -237h391l-5 -25h-431z" />
<glyph unicode="3" d="M28 172q0 13 3 34h28q-3 -18 -3 -28q0 -73 49 -119t126 -46q81 0 139 54t58 130q0 84 -75 127q-40 24 -112 24h-18l5 25h15q49 0 74.5 5t52.5 19q78 42 78 126q0 59 -41 96.5t-105 37.5q-69 0 -116.5 -45.5t-64.5 -127.5h-28q19 95 73 146.5t136 51.5q75 0 124 -44.5 t49 -113.5q0 -64 -40 -108.5t-107 -55.5q41 -12 66 -33q28 -23 44.5 -58.5t16.5 -72.5q0 -85 -66 -146.5t-157 -61.5q-87 0 -145.5 52.5t-58.5 131.5z" />
<glyph unicode="4" d="M-6 134l5 25l443 511h38l-99 -511h92l-5 -25h-92l-26 -134h-27l26 134h-355zM32 159h322l93 479z" />
<glyph unicode="5" d="M10 172q0 4 2 26h25q-1 -9 -1 -19q0 -73 52 -119.5t134 -46.5q93 0 153 63t60 161q0 80 -50.5 129t-132.5 49q-104 0 -167 -80l-30 13l123 322h323l-5 -25h-300l-102 -267q38 34 73.5 48t82.5 14q95 0 153.5 -56t58.5 -148q0 -106 -69 -177t-173 -71q-89 0 -149.5 53 t-60.5 131z" />
<glyph unicode="6" d="M17 197q0 63 31.5 120t118.5 153l182 200h32l-231 -253q57 29 115 29q91 0 150 -59.5t59 -150.5q0 -105 -71.5 -176.5t-175.5 -71.5q-90 0 -150 59.5t-60 149.5zM44 200q0 -83 51.5 -135t133.5 -52q92 0 155 65t63 160q0 81 -52 132t-134 51q-88 0 -152.5 -65.5 t-64.5 -155.5z" />
<glyph unicode="7" d="M74 0l426 645h-363l5 25h393l-5 -25l-425 -645h-31z" />
<glyph unicode="8" d="M23 169q0 41 19.5 82.5t53.5 69.5q44 37 110 47q-93 46 -93 140q0 73 55.5 123.5t136.5 50.5q76 0 126.5 -44t50.5 -111q0 -39 -18.5 -76t-49.5 -59q-27 -20 -74 -32q42 -18 62 -35q56 -50 56 -127q0 -88 -65.5 -149t-160.5 -61q-90 0 -149.5 51.5t-59.5 129.5zM50 171 q0 -69 51.5 -113.5t130.5 -44.5q83 0 141 54t58 130q0 67 -50 110.5t-127 43.5q-83 0 -143.5 -53.5t-60.5 -126.5zM140 511q0 -58 43 -96.5t108 -38.5q69 0 116.5 43.5t47.5 106.5q0 57 -42 94t-106 37q-69 0 -118 -42.5t-49 -103.5z" />
<glyph unicode="9" d="M63 434q0 104 71.5 176t175.5 72q92 0 150.5 -59t58.5 -150q0 -66 -31 -122.5t-118 -149.5l-187 -201h-34l231 252q-55 -28 -108 -28q-92 0 -150.5 59t-58.5 151zM90 432q0 -81 51.5 -132t132.5 -51q94 0 155 64q63 68 63 156q0 82 -52 135t-133 53q-92 0 -154.5 -65 t-62.5 -160z" />
<glyph unicode=":" horiz-adv-x="168" d="M22 0l15 76h27l-15 -76h-27zM101 408l15 76h27l-15 -76h-27z" />
<glyph unicode=";" horiz-adv-x="168" d="M-33 -63l86 139h28l-87 -139h-27zM119 409l15 75h26l-14 -75h-27z" />
<glyph unicode="&#x3c;" d="M34 322v27l436 189v-28l-406 -174l406 -175v-28z" />
<glyph unicode="=" horiz-adv-x="502" d="M61 268v26h414v-26h-414zM61 376v26h414v-26h-414z" />
<glyph unicode="&#x3e;" d="M34 133v28l405 175l-405 175v27l435 -189v-27z" />
<glyph unicode="?" horiz-adv-x="443" d="M68 496q17 88 71.5 137t135.5 49q79 0 130.5 -45t51.5 -113q0 -62 -41 -114q-20 -26 -79 -71q-66 -49 -88 -83.5t-35 -106.5h-26q10 72 39.5 117t97.5 95q57 41 81 78.5t24 82.5q0 59 -43.5 97t-112.5 38q-70 0 -117 -42.5t-62 -118.5h-27zM163 0l14 76h27l-15 -76h-26z " />
<glyph unicode="@" horiz-adv-x="767" d="M51 261q0 146 101.5 246.5t249.5 100.5q136 0 227 -84.5t91 -211.5q0 -95 -48.5 -166t-112.5 -71q-32 0 -49.5 16.5t-23.5 52.5q-49 -73 -129 -73q-60 0 -98.5 44t-38.5 114q0 86 50.5 143.5t125.5 57.5q83 0 121 -84l13 69h28l-40 -208q-7 -35 -7 -50q0 -25 14.5 -41 t37.5 -16q51 0 90.5 64t39.5 146q0 119 -82 196t-209 77q-136 0 -230 -93.5t-94 -230.5q0 -134 89 -226q91 -95 244 -95q117 0 217 47l8 -25q-102 -47 -224 -47q-162 0 -261 99q-47 47 -73.5 113t-26.5 136zM247 231q0 -59 33 -97t85 -38q57 0 95.5 54t38.5 134q0 56 -28 89 t-76 33q-61 0 -104.5 -52t-43.5 -123z" />
<glyph unicode="A" horiz-adv-x="633" d="M-38 0l414 670h41l157 -670h-26l-56 234h-355l-145 -234h-30zM153 259h334l-92 392z" />
<glyph unicode="B" horiz-adv-x="518" d="M29 0l130 670h123q94 0 137 -24q71 -41 71 -122q0 -42 -21 -81t-56 -61q-27 -16 -63 -26q55 -13 87.5 -54t32.5 -97q0 -53 -27.5 -99.5t-72.5 -71.5q-63 -34 -191 -34h-150zM61 25h124q121 0 175 33q38 23 60.5 63.5t22.5 85.5q0 78 -69 116q-41 21 -124 21h-127z M128 369h125q94 0 142 29q31 20 49.5 54.5t18.5 71.5q0 68 -61 101q-35 20 -126 20h-95z" />
<glyph unicode="C" horiz-adv-x="737" d="M55 298q0 164 105 274t261 110q104 0 182 -49.5t112 -135.5h-31q-20 45 -44 72q-37 41 -94 64.5t-121 23.5q-67 0 -130.5 -25.5t-108.5 -70.5q-47 -46 -75.5 -116.5t-28.5 -141.5q0 -128 80.5 -209t207.5 -81q97 0 172 44.5t121 129.5h29q-32 -70 -87 -115 q-101 -84 -236 -84q-138 0 -226 87t-88 223z" />
<glyph unicode="D" horiz-adv-x="673" d="M29 0l130 670h73q166 0 241 -30q87 -35 133.5 -105t46.5 -166q0 -98 -46.5 -181t-128.5 -131q-58 -34 -118.5 -45.5t-180.5 -11.5h-150zM61 25h126q107 0 165 11.5t113 42.5q76 43 118.5 119.5t42.5 170.5q0 154 -118 224q-50 30 -109 41t-173 11h-45z" />
<glyph unicode="E" horiz-adv-x="463" d="M29 0l130 670h330l-5 -25h-303l-58 -297h305l-5 -25h-304l-58 -298h308l-5 -25h-335z" />
<glyph unicode="F" horiz-adv-x="434" d="M29 0l130 670h324l-5 -25h-297l-56 -290h296l-5 -25h-296l-64 -330h-27z" />
<glyph unicode="G" horiz-adv-x="758" d="M55 302q0 163 106 271.5t266 108.5q213 0 301 -189h-29q-81 164 -272 164q-147 0 -246 -102t-99 -254q0 -129 82.5 -208.5t215.5 -79.5q121 0 209 68t111 180h-391l4 25h418q-24 -135 -112 -213q-94 -85 -241 -85q-143 0 -233 87.5t-90 226.5z" />
<glyph unicode="H" horiz-adv-x="605" d="M29 0l130 670h27l-61 -312h398l61 312h26l-130 -670h-27l65 333h-397l-65 -333h-27z" />
<glyph unicode="I" horiz-adv-x="181" d="M29 0l130 670h27l-130 -670h-27z" />
<glyph unicode="J" horiz-adv-x="389" d="M-23 117v15h26q3 -54 25 -79q34 -40 97 -40q86 0 127 81q11 21 19 55.5t40 200.5l62 320h27q-78 -402 -90 -466q-13 -68 -27 -103t-39 -63q-47 -50 -119 -50q-62 0 -105 37.5t-43 91.5z" />
<glyph unicode="K" horiz-adv-x="517" d="M29 0l130 670h27l-85 -438l419 438h34l-304 -319l199 -351h-29l-189 331l-139 -144l-36 -187h-27z" />
<glyph unicode="L" horiz-adv-x="408" d="M29 0l130 670h27l-125 -645h283l-5 -25h-310z" />
<glyph unicode="M" horiz-adv-x="794" d="M29 0l130 670h44l156 -645l393 645h47l-131 -670h-26l125 645l-396 -645h-32l-158 645l-125 -645h-27z" />
<glyph unicode="N" horiz-adv-x="668" d="M29 0l130 670h38l324 -645l125 645h27l-130 -670h-39l-323 645l-125 -645h-27z" />
<glyph unicode="O" horiz-adv-x="773" d="M54 304q0 67 26.5 136.5t71.5 120.5q107 121 274 121q144 0 234.5 -87.5t90.5 -227.5q0 -161 -107 -270t-265 -109q-146 0 -235.5 87t-89.5 229zM81 304q0 -130 82 -210.5t213 -80.5q149 0 248.5 100.5t99.5 250.5q0 132 -81 212.5t-214 80.5q-160 0 -258 -112 q-40 -46 -65 -112.5t-25 -128.5z" />
<glyph unicode="P" horiz-adv-x="491" d="M29 0l130 670h103q72 0 108.5 -6.5t67.5 -23.5q35 -19 55 -56.5t20 -84.5q0 -49 -22 -94t-60 -71q-34 -24 -77.5 -33.5t-117.5 -9.5h-123l-57 -291h-27zM117 316h123q121 0 174 37q32 22 52 62.5t20 83.5q0 38 -17 70t-45 48q-48 28 -167 28h-76z" />
<glyph unicode="Q" horiz-adv-x="778" d="M55 302q0 74 27.5 145.5t76.5 123.5q106 111 269 111q144 0 235.5 -87.5t91.5 -225.5q0 -186 -151 -310q45 -29 78.5 -40.5t79.5 -12.5l-2 -24q-97 0 -178 60q-101 -54 -200 -54q-145 0 -236 87.5t-91 226.5zM82 301q0 -32 8 -68q65 22 140 22q87 0 153.5 -30t145.5 -104 q24 -24 53 -47q146 110 146 292q0 130 -82 210.5t-216 80.5q-150 0 -249 -101.5t-99 -254.5zM95 208q33 -94 106 -144.5t175 -50.5q103 0 181 46l-44 41q-76 73 -138.5 101.5t-144.5 28.5q-75 0 -135 -22z" />
<glyph unicode="R" horiz-adv-x="539" d="M29 0l130 670h124q76 0 111.5 -6t66.5 -24q81 -47 81 -155q0 -68 -35 -123.5t-96 -83.5q-56 -26 -130 -27l130 -251h-29l-144 277q13 -1 32 -1q108 0 171 51q74 61 74 158q0 42 -17.5 77.5t-48.5 54.5q-28 17 -61 22.5t-111 5.5h-96l-125 -645h-27z" />
<glyph unicode="S" horiz-adv-x="446" d="M11 147q0 13 4 36h25q-3 -29 -3 -34q0 -58 44.5 -97t109.5 -39q74 0 123 47.5t49 119.5q0 47 -27 85q-26 35 -102 74q-78 40 -109.5 78.5t-31.5 95.5q0 74 49 121.5t126 47.5q73 0 118 -40.5t45 -105.5q0 -10 -3 -33h-26q3 21 3 32q0 55 -36.5 88.5t-97.5 33.5 q-66 0 -108.5 -40.5t-42.5 -103.5q0 -49 33 -85q25 -29 95 -65q78 -40 110 -81.5t32 -101.5q0 -83 -56 -137.5t-141 -54.5q-78 0 -130 45.5t-52 113.5z" />
<glyph unicode="T" horiz-adv-x="410" d="M91 645l5 25h383l-5 -25h-180l-126 -645h-26l125 645h-176z" />
<glyph unicode="U" horiz-adv-x="570" d="M60 162q0 32 13 102l79 406h27l-79 -406q-13 -70 -13 -105q0 -66 47.5 -106t126.5 -40q86 0 138 50q29 28 43 66t33 135l79 406h27l-79 -406q-21 -108 -37.5 -149.5t-51.5 -73.5q-58 -53 -151 -53q-91 0 -146.5 47.5t-55.5 126.5z" />
<glyph unicode="V" horiz-adv-x="573" d="M82 670h26l147 -647l372 647h28l-388 -670h-31z" />
<glyph unicode="W" horiz-adv-x="840" d="M99 670h25l53 -650l308 650h40l51 -650l304 650h26l-311 -670h-43l-50 649l-307 -649h-42z" />
<glyph unicode="X" horiz-adv-x="511" d="M-42 0l291 350l-160 320h31l149 -298l249 298h36l-272 -324l174 -346h-30l-163 325l-272 -325h-33z" />
<glyph unicode="Y" horiz-adv-x="509" d="M89 670h27l144 -410l294 410h30l-314 -441l-44 -229h-27l44 229z" />
<glyph unicode="Z" d="M-6 0l5 25l485 620h-380l4 25h413l-5 -25l-485 -620h402l-5 -25h-434z" />
<glyph unicode="[" horiz-adv-x="319" d="M27 -39q0 35 13 99l75 387q18 92 37 131t62 70q35 26 93 34l-5 -25q-74 -15 -107 -58t-53 -149l-76 -390q-14 -69 -14 -97q0 -86 89 -136l-5 -25q-109 51 -109 159z" />
<glyph unicode="\" horiz-adv-x="422" d="M136 670h30l198 -856h-31z" />
<glyph unicode="]" horiz-adv-x="319" d="M10 -198l5 25q74 15 107 58t53 149l76 390q14 70 14 97q0 86 -89 136l5 25q109 -51 109 -160q0 -30 -14 -98l-75 -386q-18 -93 -37 -131.5t-62 -70.5q-38 -27 -92 -34z" />
<glyph unicode="^" d="M42 392l191 278h36l191 -278h-34l-176 257l-175 -257h-33z" />
<glyph unicode="_" d="M0 -81h503v-27h-503v27z" />
<glyph unicode="`" d="M200 690l16 18l159 -137l-14 -18z" />
<glyph unicode="a" horiz-adv-x="598" d="M36 220q0 117 76.5 196.5t188.5 79.5q82 0 145 -45t74 -113l28 146h26l-94 -484h-26l18 90q-41 -51 -82 -73q-56 -29 -121 -29q-102 0 -167.5 65.5t-65.5 166.5zM61 222q0 -94 56.5 -152.5t148.5 -58.5q100 0 168.5 72.5t68.5 178.5q0 95 -56 153t-149 58 q-100 0 -168.5 -72.5t-68.5 -178.5z" />
<glyph unicode="b" horiz-adv-x="600" d="M22 0l130 670h26l-55 -280q81 106 205 106q103 0 168.5 -64.5t65.5 -165.5q0 -117 -77.5 -197.5t-190.5 -80.5q-52 0 -98.5 19.5t-76.5 54.5q-27 32 -43 87l-29 -149h-25zM94 219q0 -95 55.5 -151.5t148.5 -56.5q99 0 169 74t70 178q0 92 -58 150.5t-150 58.5 q-99 0 -167 -73t-68 -180z" />
<glyph unicode="c" horiz-adv-x="562" d="M36 222q0 113 77.5 193.5t187.5 80.5q90 0 152 -50t77 -134h-27q-18 77 -70 119t-129 42q-102 0 -172.5 -72.5t-70.5 -177.5q0 -94 59.5 -153t154.5 -59q142 0 210 146h28q-31 -80 -93.5 -124.5t-144.5 -44.5q-105 0 -172 65.5t-67 168.5z" />
<glyph unicode="d" horiz-adv-x="598" d="M36 220q0 118 76 197t189 79q82 0 145 -45t74 -113l64 332h26l-130 -670h-26l18 90q-41 -51 -82 -73q-56 -29 -121 -29q-102 0 -167.5 65.5t-65.5 166.5zM61 222q0 -94 56.5 -152.5t148.5 -58.5q100 0 168.5 72.5t68.5 178.5q0 95 -56 153t-149 58q-100 0 -168.5 -72.5 t-68.5 -178.5z" />
<glyph unicode="e" horiz-adv-x="562" d="M36 217q0 118 75.5 198.5t185.5 80.5q103 0 168 -64t61 -166l-1 -26h-460q-1 -11 -1 -24q0 -88 57.5 -146.5t144.5 -58.5q142 0 212 136h29q-32 -74 -96 -116.5t-144 -42.5q-101 0 -166 64.5t-65 164.5zM68 263h431q-2 96 -57 153t-146 57q-86 0 -150.5 -59t-77.5 -151z " />
<glyph unicode="f" horiz-adv-x="261" d="M42 460l5 23h97l6 34q10 53 25.5 83t42.5 49q38 27 94 27q10 0 17 -1l-5 -25q-5 1 -16 1q-56 0 -87.5 -31.5t-45.5 -102.5l-7 -34h124l-5 -23h-123l-90 -460h-25l89 460h-96z" />
<glyph unicode="g" horiz-adv-x="598" d="M15 -66h27q13 -42 35 -66q56 -58 159 -58q89 0 149 52q31 28 47 64t30 113l9 50q-76 -101 -202 -101q-101 0 -167 65t-66 165q0 118 76.5 198t189.5 80q96 0 160 -61q23 -22 35 -43t22 -56l29 148h26l-87 -445q-16 -86 -32.5 -123.5t-49.5 -68.5q-64 -61 -165 -61 q-55 0 -104 17.5t-78 46.5q-30 31 -43 84zM61 220q0 -91 59 -150t149 -59q96 0 159 65q33 35 53.5 86t20.5 101q0 94 -56 152t-147 58q-97 0 -167.5 -75t-70.5 -178z" />
<glyph unicode="h" horiz-adv-x="542" d="M22 0l130 670h26l-54 -278q69 104 185 104q76 0 126.5 -43t50.5 -108q0 -41 -16 -123l-43 -222h-26l43 222q15 78 15 118q0 58 -42 95t-107 37q-69 0 -120 -40q-40 -31 -60.5 -74.5t-38.5 -135.5l-44 -222h-25z" />
<glyph unicode="i" horiz-adv-x="166" d="M22 0l94 484h26l-95 -484h-25zM138 595l14 75h26l-15 -75h-25z" />
<glyph unicode="j" horiz-adv-x="166" d="M-119 -184l5 26q2 -1 5 -1q44 0 71 21q24 17 35 43t25 95l94 484h25l-94 -484q-13 -70 -24.5 -99.5t-31.5 -48.5q-39 -37 -96 -37q-8 0 -14 1zM137 595l15 75h26l-15 -75h-26z" />
<glyph unicode="k" horiz-adv-x="432" d="M22 0l130 670h26l-102 -521l311 335h34l-206 -223l152 -261h-30l-140 243l-129 -137l-21 -106h-25z" />
<glyph unicode="l" horiz-adv-x="166" d="M22 0l130 670h26l-131 -670h-25z" />
<glyph unicode="m" horiz-adv-x="812" d="M22 0l94 484h26l-16 -79q63 91 161 91q60 0 93 -26.5t51 -90.5q65 117 173 117q67 0 110 -40t43 -103q0 -40 -17 -127l-44 -226h-25l44 226q16 80 16 125q0 54 -34.5 87.5t-90.5 33.5q-66 0 -113 -47q-30 -31 -43.5 -66.5t-32.5 -132.5l-44 -226h-25l44 226q15 77 15 112 q0 62 -31 98t-86 36q-81 0 -131 -59q-25 -29 -38 -66t-30 -121l-44 -226h-25z" />
<glyph unicode="n" horiz-adv-x="542" d="M22 0l94 484h26l-18 -92q68 104 185 104q76 0 126.5 -43t50.5 -108q0 -41 -16 -124l-43 -221h-26l43 221q15 80 15 119q0 57 -42.5 94.5t-106.5 37.5q-69 0 -120 -40q-40 -31 -61 -75t-39 -136l-43 -221h-25z" />
<glyph unicode="o" horiz-adv-x="567" d="M35 221q0 54 23 110t61 93q74 72 181 72q101 0 165 -64t64 -166q0 -116 -76 -197t-185 -81q-104 0 -168.5 64.5t-64.5 168.5zM60 220q0 -92 57.5 -150.5t148.5 -58.5q99 0 168.5 75t69.5 181q0 90 -57 148t-146 58q-100 0 -170.5 -74t-70.5 -179z" />
<glyph unicode="p" horiz-adv-x="599" d="M-14 -186l130 670h26l-19 -96q73 108 203 108q104 0 169.5 -64.5t65.5 -166.5q0 -116 -77 -196.5t-189 -80.5q-97 0 -161 59q-39 36 -57 102l-66 -335h-25zM93 222q0 -95 55.5 -153t147.5 -58q100 0 170 73.5t70 179.5q0 91 -58 149.5t-149 58.5q-100 0 -168 -72 t-68 -178z" />
<glyph unicode="q" horiz-adv-x="598" d="M36 220q0 117 76.5 196.5t188.5 79.5q82 0 145 -45t74 -113l28 146h26l-131 -670h-25l54 276q-41 -51 -82 -73q-56 -29 -121 -29q-102 0 -167.5 65.5t-65.5 166.5zM61 222q0 -94 56.5 -152.5t148.5 -58.5q100 0 168.5 72.5t68.5 178.5q0 95 -56 153t-149 58 q-100 0 -168.5 -72.5t-68.5 -178.5z" />
<glyph unicode="r" horiz-adv-x="279" d="M22 0l94 484h26l-18 -92q65 100 189 100l-5 -27q-170 -1 -213 -221l-48 -244h-25z" />
<glyph unicode="s" horiz-adv-x="361" d="M7 118q0 7 2 29h28q-2 -20 -2 -27q0 -49 30.5 -79t80.5 -30q53 0 88.5 34t35.5 86q0 34 -19.5 56.5t-77.5 54.5q-62 35 -84 61t-22 65q0 54 39 91t96 37q53 0 88 -33.5t35 -84.5q0 -14 -2 -24h-29q3 17 3 27q0 39 -27.5 65t-69.5 26q-47 0 -77 -28.5t-30 -71.5 q0 -32 17.5 -52.5t71.5 -51.5q60 -34 82 -56q32 -32 32 -81q0 -59 -44 -101t-106 -42q-61 0 -100 36.5t-39 93.5z" />
<glyph unicode="t" horiz-adv-x="249" d="M20 460l5 23h118l37 187h25l-36 -187h121l-5 -23h-121l-89 -460h-26l90 460h-119z" />
<glyph unicode="u" horiz-adv-x="542" d="M55 145q0 40 15 118l43 221h26l-44 -221q-13 -65 -13 -115q0 -59 43 -98t109 -39q86 0 144 66q28 32 41 66.5t30 119.5l44 221h25l-94 -484h-26l18 89q-69 -101 -183 -101q-77 0 -127.5 45t-50.5 112z" />
<glyph unicode="v" horiz-adv-x="429" d="M47 484h26l95 -459l276 459h29l-293 -484h-33z" />
<glyph unicode="w" horiz-adv-x="728" d="M57 484h26l61 -459l247 459h39l67 -459l236 459h29l-249 -484h-40l-66 460l-248 -460h-38z" />
<glyph unicode="x" horiz-adv-x="393" d="M-26 0l205 245l-120 239h28l110 -216l180 216h31l-199 -240l122 -244h-30l-111 222l-183 -222h-33z" />
<glyph unicode="y" horiz-adv-x="437" d="M37 -186l113 186l-103 484h28l96 -454l280 454h30l-415 -670h-29z" />
<glyph unicode="z" horiz-adv-x="389" d="M-25 0l5 24l376 437h-291l4 23h324l-5 -24l-376 -437h317l-5 -23h-349z" />
<glyph unicode="{" horiz-adv-x="319" d="M25 -93q0 22 4 42l36 185q5 27 5 38q0 44 -44 57l5 26q34 9 50.5 29.5t25.5 65.5l37 185q16 80 50.5 108.5t115.5 29.5l-5 -25q-68 1 -94.5 -20.5t-39.5 -87.5l-35 -180q-10 -53 -28 -77.5t-56 -40.5q25 -13 34.5 -27.5t9.5 -40.5q0 -20 -6 -50l-35 -180q-3 -16 -3 -30 q0 -42 21.5 -59.5t73.5 -18.5l-5 -25q-61 1 -89 24.5t-28 71.5z" />
<glyph unicode="|" d="M238 -168v838h27v-838h-27z" />
<glyph unicode="}" horiz-adv-x="319" d="M7 -189l5 25q68 -1 94 20.5t39 87.5l35 180q10 53 28.5 78t56.5 40q-25 12 -34.5 27t-9.5 41q0 23 5 50l35 180q4 22 4 30q0 42 -21.5 59.5t-73.5 18.5l5 25q61 -1 89 -24.5t28 -71.5q0 -15 -5 -42l-36 -185q-4 -19 -4 -38q0 -46 43 -57l-5 -26q-34 -9 -51 -30t-25 -65 l-36 -185q-16 -80 -50.5 -108.5t-115.5 -29.5z" />
<glyph unicode="~" horiz-adv-x="670" d="M96 616q29 51 59 73.5t68 22.5q40 0 118 -43q72 -39 107 -39q31 0 55 19t51 65l21 -12q-54 -97 -128 -97q-25 0 -50.5 9.5t-88.5 43.5q-55 29 -86 29t-55.5 -19.5t-50.5 -64.5z" />
<glyph unicode="&#xa1;" horiz-adv-x="195" d="M-1 -186l102 524h27l-102 -524h-27zM115 408l14 76h27l-15 -76h-26z" />
<glyph unicode="&#xa2;" d="M75 322q0 59 28 110.5t77 80.5q46 27 115 30l25 127h26l-24 -128q55 -7 95.5 -41.5t50.5 -81.5h-28q-16 47 -55.5 73t-93.5 26q-82 0 -135.5 -56.5t-53.5 -142.5q0 -71 45 -114.5t118 -43.5q99 0 152 86h30q-25 -54 -75 -82.5t-116 -27.5l-27 -137h-27l27 137 q-75 17 -114.5 64.5t-39.5 120.5z" />
<glyph unicode="&#xa3;" d="M0 0l4 25h106q75 74 75 156q0 30 -7.5 53.5t-34.5 75.5l-12 23h-99l4 25h86q-22 59 -22 108q0 92 58 154t144 62q74 0 125 -48t51 -118q0 -6 -2 -30h-27q4 19 4 32q0 58 -44.5 98.5t-108.5 40.5q-75 0 -124 -53t-49 -134q0 -49 21 -112h206l-4 -25h-192 q33 -60 43.5 -89.5t10.5 -65.5q0 -73 -66 -153h48q77 0 117 14.5t71 53.5q36 44 50 130h27q-14 -100 -68 -160q-33 -37 -74.5 -50t-122.5 -13h-194z" />
<glyph unicode="&#xa4;" horiz-adv-x="658" d="M107 115l70 70q-58 68 -58 152q0 85 57 148l-67 67l19 19l67 -67q67 58 150 58q87 0 151 -58l69 70l19 -19l-69 -70q56 -65 56 -148q0 -84 -56 -152l67 -67l-19 -19l-67 67q-66 -57 -152 -57q-85 0 -149 57l-69 -70zM146 338q0 -85 58.5 -144.5t141.5 -59.5 q82 0 140.5 59.5t58.5 143.5q0 82 -59 141.5t-141 59.5q-80 0 -139.5 -59.5t-59.5 -140.5z" />
<glyph unicode="&#xa5;" d="M67 236l5 25h160l-41 136h-113l5 25h100l-75 248h24l122 -394l262 394h31l-166 -248h100l-4 -25h-112l-91 -136h156l-5 -25h-163l-46 -236h-27l46 236h-168z" />
<glyph unicode="&#xa6;" d="M238 154h27v-322h-27v322zM238 347v323h27v-323h-27z" />
<glyph unicode="&#xa7;" d="M3 -38q0 13 2 28h26q-1 -11 -1 -22q0 -37 17 -65q21 -35 60.5 -55t86.5 -20q72 0 118.5 41t46.5 103q0 54 -44 98q-18 17 -37 28t-110 59q-55 29 -78 60.5t-23 78.5t22.5 81t80.5 73q-31 37 -31 85q0 63 49 105t122 42q70 0 114.5 -38t44.5 -98q0 -16 -5 -37h-29 q6 22 6 39q0 47 -37.5 78t-95.5 31q-62 0 -102 -34.5t-40 -89.5q0 -45 41 -81q22 -18 39.5 -27.5t102.5 -50.5q51 -24 73.5 -54.5t22.5 -74.5q0 -47 -22 -84.5t-77 -83.5q40 -49 40 -106q0 -74 -53 -121t-137 -47q-83 0 -138 45.5t-55 113.5zM94 296q0 -47 30 -77 q17 -16 33.5 -25.5t97.5 -50.5q49 -26 68 -45q95 61 95 145q0 52 -37 80q-18 13 -121 63q-43 21 -69 44q-97 -51 -97 -134z" />
<glyph unicode="&#xa8;" d="M235 566l21 109h26l-22 -109h-25zM337 566l21 109h26l-21 -109h-26z" />
<glyph unicode="&#xa9;" horiz-adv-x="797" d="M67 338q0 66 27.5 132t74.5 113q101 99 244 99q148 0 249 -100.5t101 -247.5q0 -145 -101 -245.5t-246 -100.5q-148 0 -248.5 101t-100.5 249zM92 339q0 -141 92.5 -234.5t232.5 -93.5q134 0 227.5 94.5t93.5 230.5t-94 229.5t-230 93.5q-134 0 -228 -93.5t-94 -226.5z M204 322q0 97 66 162.5t164 65.5q68 0 117 -31t72 -87h-29q-45 94 -159 94q-87 0 -146 -57.5t-59 -142.5q0 -74 49.5 -121t126.5 -47q122 0 177 102h27q-26 -59 -80.5 -92.5t-125.5 -33.5q-88 0 -144 53t-56 135z" />
<glyph unicode="&#xaa;" horiz-adv-x="388" d="M59 403q0 70 48.5 117.5t119.5 47.5q47 0 83 -20.5t52 -56.5l14 70h25l-57 -293h-25l8 42q-46 -49 -118 -49q-65 0 -107.5 40t-42.5 102zM85 406q0 -55 34 -88.5t90 -33.5q59 0 99 40.5t40 99.5q0 55 -34 88t-90 33q-59 0 -99 -40t-40 -99z" />
<glyph unicode="&#xab;" horiz-adv-x="310" d="M47 247l127 164l20 -16l-119 -151l58 -150l-25 -9zM137 247l128 164l20 -16l-119 -151l58 -150l-26 -9z" />
<glyph unicode="&#xac;" d="M34 243v25h436v-268h-27v243h-409z" />
<glyph unicode="&#xad;" horiz-adv-x="225" d="M-3 236l5 25h224l-4 -25h-225z" />
<glyph unicode="&#xae;" horiz-adv-x="797" d="M67 338q0 66 27.5 132t74.5 113q101 99 244 99q148 0 249 -100.5t101 -247.5q0 -145 -101 -245.5t-246 -100.5q-148 0 -248.5 101t-100.5 249zM92 339q0 -141 92.5 -234.5t232.5 -93.5q134 0 227.5 94.5t93.5 230.5t-94 229.5t-230 93.5q-134 0 -228 -93.5t-94 -226.5z M257 141l78 402h81q80 0 113 -18q53 -28 53 -96q0 -60 -43.5 -99t-113.5 -42l82 -147h-29l-97 172q12 -1 29 -1q67 0 106.5 31.5t39.5 84.5q0 51 -41 75q-27 16 -104 16h-55l-74 -378h-25z" />
<glyph unicode="&#xaf;" d="M166 604l5 25h281l-4 -25h-282z" />
<glyph unicode="&#xb0;" horiz-adv-x="370" d="M121 563q0 49 37 84t87 35q52 0 88.5 -35.5t36.5 -85.5t-36.5 -85.5t-87.5 -35.5q-53 0 -89 35.5t-36 87.5zM148 563q0 -41 28.5 -69t69.5 -28q40 0 68.5 28t28.5 67q0 40 -28.5 68t-69.5 28q-40 0 -68.5 -28t-28.5 -66z" />
<glyph unicode="&#xb1;" d="M62 47v26h414v-26h-414zM62 322v26h194v187h26v-187h194v-26h-194v-187h-26v187h-194z" />
<glyph unicode="&#xb2;" horiz-adv-x="329" d="M36 268l4 21l193 153q55 44 74.5 70t19.5 56q0 37 -27 61t-70 24q-94 0 -114 -110h-26q23 134 141 134q54 0 88 -29.5t34 -76.5q0 -37 -22.5 -69t-82.5 -79l-166 -131h235l-5 -24h-276z" />
<glyph unicode="&#xb3;" horiz-adv-x="328" d="M55 374q0 6 3 24h26q-3 -14 -3 -19q0 -41 30 -67.5t76 -26.5q47 0 81 29.5t34 71.5q0 49 -45 73q-24 13 -68 13h-15l5 24h13q49 0 76 14q45 22 45 68q0 32 -25 53.5t-63 21.5q-42 0 -69.5 -26t-37.5 -75h-25q10 60 45.5 92.5t88.5 32.5q48 0 80 -27.5t32 -69.5 q0 -69 -76 -97q65 -33 65 -95q0 -52 -42 -89.5t-100 -37.5q-56 0 -93.5 32.5t-37.5 80.5z" />
<glyph unicode="&#xb4;" d="M252 570l184 138l14 -18l-184 -137z" />
<glyph unicode="&#xb5;" d="M-15 -164l126 647h26l-55 -288q-10 -50 -10 -71q0 -52 34.5 -84t90.5 -32q74 0 131.5 55.5t74.5 144.5l54 275h27l-94 -483h-27l21 110q-76 -125 -193 -125q-96 0 -134 84l-45 -233h-27z" />
<glyph unicode="&#xb6;" d="M83 450q0 47 21 93t56 76q59 51 161 51h204l-5 -25h-58l-145 -745h-27l145 745h-111l-145 -745h-27l81 415h-15q-63 0 -99 36t-36 99z" />
<glyph unicode="&#xb7;" horiz-adv-x="168" d="M63 210l15 76h27l-15 -76h-27z" />
<glyph unicode="&#xb8;" d="M162 -131h25q10 -36 40 -36q20 0 33.5 14.5t13.5 35.5q0 18 -11 29t-28 11q-21 0 -38 -26l-20 9l50 94h23l-34 -58q13 4 23 4q27 0 45 -18t18 -45q0 -32 -21 -53.5t-52 -21.5q-28 0 -46.5 17t-20.5 44z" />
<glyph unicode="&#xb9;" horiz-adv-x="328" d="M103 491l171 179h24l-79 -402h-25l69 357l-142 -148z" />
<glyph unicode="&#xba;" horiz-adv-x="369" d="M59 403q0 69 49 117t119 48q65 0 106.5 -39.5t41.5 -101.5q0 -70 -48 -118t-118 -48q-67 0 -108.5 39.5t-41.5 102.5zM85 404q0 -53 35 -86.5t90 -33.5q58 0 98.5 41.5t40.5 100.5q0 52 -34.5 85.5t-88.5 33.5q-58 0 -99.5 -41.5t-41.5 -99.5z" />
<glyph unicode="&#xbb;" horiz-adv-x="310" d="M25 101l119 151l-58 150l26 9l60 -162l-127 -164zM115 101l120 151l-58 150l25 9l61 -162l-127 -164z" />
<glyph unicode="&#xbc;" horiz-adv-x="840" d="M103 491l171 179h24l-79 -402h-25l69 357l-142 -148zM204 0l439 670h27l-440 -670h-26zM493 79l4 21l274 302h30l-58 -299h57l-5 -24h-57l-15 -79h-26l16 79h-220zM531 103h186l51 262z" />
<glyph unicode="&#xbd;" horiz-adv-x="840" d="M103 491l171 179h24l-79 -402h-25l69 357l-142 -148zM204 0l439 670h27l-440 -670h-26zM495 0l5 21l192 153q55 44 74.5 70t19.5 56q0 37 -27 61t-70 24q-94 0 -114 -110h-26q23 134 141 134q54 0 88 -29.5t34 -76.5q0 -37 -22.5 -69t-82.5 -79l-166 -131h235l-5 -24 h-276z" />
<glyph unicode="&#xbe;" horiz-adv-x="840" d="M55 374q0 6 3 24h26q-3 -14 -3 -19q0 -41 30 -67.5t76 -26.5q47 0 81 29.5t34 71.5q0 49 -45 73q-24 13 -68 13h-15l5 24h13q49 0 76 14q45 22 45 68q0 32 -25 53.5t-63 21.5q-42 0 -69.5 -26t-37.5 -75h-25q10 60 45.5 92.5t88.5 32.5q48 0 80 -27.5t32 -69.5 q0 -69 -76 -97q65 -33 65 -95q0 -52 -42 -89.5t-100 -37.5q-56 0 -93.5 32.5t-37.5 80.5zM204 0l440 670h26l-439 -670h-27zM493 79l4 21l274 302h30l-58 -299h57l-4 -24h-58l-15 -79h-25l15 79h-220zM531 103h187l51 262z" />
<glyph unicode="&#xbf;" horiz-adv-x="443" d="M-17 -39q0 61 41 113q20 26 79 71q67 50 89 84t35 106h25q-10 -72 -39.5 -117t-97.5 -95q-57 -41 -81 -78.5t-24 -82.5q0 -60 43.5 -97.5t112.5 -37.5q70 0 116.5 42t62.5 119h27q-19 -90 -72.5 -138t-134.5 -48q-79 0 -130.5 45t-51.5 114zM236 408l15 76h27l-15 -76 h-27z" />
<glyph unicode="&#xc0;" horiz-adv-x="633" d="M-38 0l414 670h41l157 -670h-26l-56 234h-355l-145 -234h-30zM153 259h334l-92 392zM227 849l14 23l198 -112l-11 -23z" />
<glyph unicode="&#xc1;" horiz-adv-x="633" d="M-38 0l414 670h41l157 -670h-26l-56 234h-355l-145 -234h-30zM153 259h334l-92 392zM375 760l222 112l11 -23l-222 -112z" />
<glyph unicode="&#xc2;" horiz-adv-x="633" d="M-38 0l414 670h41l157 -670h-26l-56 234h-355l-145 -234h-30zM153 259h334l-92 392zM244 763l184 95l144 -93l-14 -22l-132 85l-170 -87z" />
<glyph unicode="&#xc3;" horiz-adv-x="633" d="M-38 0l414 670h41l157 -670h-26l-56 234h-355l-145 -234h-30zM153 259h334l-92 392zM267 785q36 43 85 43q29 0 86 -25q38 -16 61 -16q37 0 66 32l21 -15q-37 -43 -91 -43q-26 0 -75 20q-48 21 -67 21q-33 0 -66 -32z" />
<glyph unicode="&#xc4;" horiz-adv-x="633" d="M-38 0l414 670h41l157 -670h-26l-56 234h-355l-145 -234h-30zM153 259h334l-92 392zM339 744l21 109h27l-21 -109h-27zM450 744l21 109h27l-22 -109h-26z" />
<glyph unicode="&#xc5;" horiz-adv-x="633" d="M-38 0l414 670h41l157 -670h-26l-56 234h-355l-145 -234h-30zM153 259h334l-92 392zM331 807q0 33 24 56.5t58 23.5q32 0 55.5 -24t23.5 -56q0 -34 -23.5 -57.5t-57.5 -23.5q-33 0 -56.5 23.5t-23.5 57.5zM358 807q0 -23 15.5 -39.5t37.5 -16.5t38 16.5t16 39.5t-15.5 39 t-37.5 16q-23 0 -38.5 -16t-15.5 -39z" />
<glyph unicode="&#xc6;" horiz-adv-x="799" d="M-62 0l545 670h337l-5 -25h-301l-58 -296h305l-5 -25h-304l-58 -299h311l-6 -25h-337l45 233h-246l-189 -233h-34zM180 258h232l73 374z" />
<glyph unicode="&#xc7;" horiz-adv-x="737" d="M55 298q0 164 105 274t261 110q104 0 182 -49.5t112 -135.5h-31q-20 45 -44 72q-37 41 -94 64.5t-121 23.5q-67 0 -130.5 -25.5t-108.5 -70.5q-47 -46 -75.5 -116.5t-28.5 -141.5q0 -128 80.5 -209t207.5 -81q97 0 172 44.5t121 129.5h29q-38 -90 -128 -145t-199 -54 l-33 -54q13 4 22 4q27 0 44.5 -18t17.5 -46q0 -34 -21.5 -56t-55.5 -22q-57 0 -65 62h27q7 -39 43 -39q19 0 33 15t14 36q0 20 -12.5 33t-31.5 13q-18 0 -39 -18l-17 10l47 81q-126 11 -204.5 96.5t-78.5 212.5z" />
<glyph unicode="&#xc8;" horiz-adv-x="463" d="M29 0l130 670h330l-5 -25h-303l-58 -297h305l-5 -25h-304l-58 -298h308l-5 -25h-335zM183 849l14 23l198 -112l-11 -23z" />
<glyph unicode="&#xc9;" horiz-adv-x="463" d="M29 0l130 670h330l-5 -25h-303l-58 -297h305l-5 -25h-304l-58 -298h308l-5 -25h-335zM307 760l222 112l11 -23l-222 -112z" />
<glyph unicode="&#xca;" horiz-adv-x="463" d="M29 0l130 670h330l-5 -25h-303l-58 -297h305l-5 -25h-304l-58 -298h308l-5 -25h-335zM178 763l184 95l144 -93l-14 -22l-132 85l-170 -87z" />
<glyph unicode="&#xcb;" horiz-adv-x="463" d="M29 0l130 670h330l-5 -25h-303l-58 -297h305l-5 -25h-304l-58 -298h308l-5 -25h-335zM274 744l21 109h27l-21 -109h-27zM385 744l21 109h27l-22 -109h-26z" />
<glyph unicode="&#xcc;" horiz-adv-x="181" d="M29 0l130 670h27l-130 -670h-27zM33 849l15 23l166 -112l-10 -23z" />
<glyph unicode="&#xcd;" horiz-adv-x="181" d="M29 0l130 670h27l-130 -670h-27zM163 760l193 112l13 -23l-195 -112z" />
<glyph unicode="&#xce;" horiz-adv-x="181" d="M29 0l130 670h27l-130 -670h-27zM70 761l136 97l98 -97l-18 -18l-83 80l-120 -82z" />
<glyph unicode="&#xcf;" horiz-adv-x="181" d="M29 0l130 670h27l-130 -670h-27zM134 744l21 109h27l-21 -109h-27zM215 744l21 109h27l-21 -109h-27z" />
<glyph unicode="&#xd0;" horiz-adv-x="673" d="M20 333l5 25h74l60 312h73q168 0 241 -30q86 -34 132.5 -104.5t46.5 -166.5q0 -98 -46.5 -180.5t-128.5 -131.5q-57 -34 -117.5 -45.5t-180.5 -11.5h-150l65 333h-74zM61 25h126q107 0 164.5 11t112.5 43q76 43 118.5 119.5t42.5 170.5q0 154 -118 224q-50 30 -108.5 41 t-172.5 11h-45l-56 -287h228l-4 -25h-228z" />
<glyph unicode="&#xd1;" horiz-adv-x="668" d="M29 0l130 670h38l324 -645l125 645h27l-130 -670h-39l-323 645l-125 -645h-27zM297 785q36 43 85 43q29 0 86 -25q38 -16 61 -16q37 0 66 32l21 -15q-37 -43 -91 -43q-26 0 -75 20q-48 21 -67 21q-33 0 -66 -32z" />
<glyph unicode="&#xd2;" horiz-adv-x="773" d="M54 304q0 67 26.5 136.5t71.5 120.5q107 121 274 121q144 0 234.5 -87.5t90.5 -227.5q0 -161 -107 -270t-265 -109q-146 0 -235.5 87t-89.5 229zM81 304q0 -130 82 -210.5t213 -80.5q149 0 248.5 100.5t99.5 250.5q0 132 -81 212.5t-214 80.5q-160 0 -258 -112 q-40 -46 -65 -112.5t-25 -128.5zM311 849l14 23l198 -112l-11 -23z" />
<glyph unicode="&#xd3;" horiz-adv-x="773" d="M54 304q0 67 26.5 136.5t71.5 120.5q107 121 274 121q144 0 234.5 -87.5t90.5 -227.5q0 -161 -107 -270t-265 -109q-146 0 -235.5 87t-89.5 229zM81 304q0 -130 82 -210.5t213 -80.5q149 0 248.5 100.5t99.5 250.5q0 132 -81 212.5t-214 80.5q-160 0 -258 -112 q-40 -46 -65 -112.5t-25 -128.5zM422 760l222 112l11 -23l-222 -112z" />
<glyph unicode="&#xd4;" horiz-adv-x="773" d="M54 304q0 67 26.5 136.5t71.5 120.5q107 121 274 121q144 0 234.5 -87.5t90.5 -227.5q0 -161 -107 -270t-265 -109q-146 0 -235.5 87t-89.5 229zM81 304q0 -130 82 -210.5t213 -80.5q149 0 248.5 100.5t99.5 250.5q0 132 -81 212.5t-214 80.5q-160 0 -258 -112 q-40 -46 -65 -112.5t-25 -128.5zM315 763l184 95l144 -93l-14 -22l-132 85l-170 -87z" />
<glyph unicode="&#xd5;" horiz-adv-x="773" d="M54 304q0 67 26.5 136.5t71.5 120.5q107 121 274 121q144 0 234.5 -87.5t90.5 -227.5q0 -161 -107 -270t-265 -109q-146 0 -235.5 87t-89.5 229zM81 304q0 -130 82 -210.5t213 -80.5q149 0 248.5 100.5t99.5 250.5q0 132 -81 212.5t-214 80.5q-160 0 -258 -112 q-40 -46 -65 -112.5t-25 -128.5zM344 785q36 43 85 43q29 0 86 -25q38 -16 61 -16q37 0 66 32l21 -15q-37 -43 -91 -43q-26 0 -75 20q-48 21 -67 21q-33 0 -66 -32z" />
<glyph unicode="&#xd6;" horiz-adv-x="773" d="M54 304q0 67 26.5 136.5t71.5 120.5q107 121 274 121q144 0 234.5 -87.5t90.5 -227.5q0 -161 -107 -270t-265 -109q-146 0 -235.5 87t-89.5 229zM81 304q0 -130 82 -210.5t213 -80.5q149 0 248.5 100.5t99.5 250.5q0 132 -81 212.5t-214 80.5q-160 0 -258 -112 q-40 -46 -65 -112.5t-25 -128.5zM390 744l21 109h27l-21 -109h-27zM501 744l21 109h27l-22 -109h-26z" />
<glyph unicode="&#xd7;" d="M101 186l149 149l-149 149l18 18l149 -149l149 149l18 -18l-149 -149l149 -149l-18 -18l-149 149l-149 -149z" />
<glyph unicode="&#xd8;" horiz-adv-x="773" d="M54 300q0 161 107.5 271.5t264.5 110.5q124 0 217 -72l87 94l19 -18l-86 -93q88 -92 88 -226q0 -161 -107 -270t-266 -109q-122 0 -212 68l-87 -94l-17 18l84 93q-92 86 -92 227zM81 297q0 -120 84 -205l461 500q-82 65 -198 65q-149 0 -248 -103t-99 -257zM184 76 q82 -63 191 -63q150 0 249.5 100t99.5 251q0 128 -79 210z" />
<glyph unicode="&#xd9;" horiz-adv-x="570" d="M60 162q0 32 13 102l79 406h27l-79 -406q-13 -70 -13 -105q0 -66 47.5 -106t126.5 -40q86 0 138 50q29 28 43 66t33 135l79 406h27l-79 -406q-21 -108 -37.5 -149.5t-51.5 -73.5q-58 -53 -151 -53q-91 0 -146.5 47.5t-55.5 126.5zM223 849l14 23l198 -112l-11 -23z" />
<glyph unicode="&#xda;" horiz-adv-x="570" d="M60 162q0 32 13 102l79 406h27l-79 -406q-13 -70 -13 -105q0 -66 47.5 -106t126.5 -40q86 0 138 50q29 28 43 66t33 135l79 406h27l-79 -406q-21 -108 -37.5 -149.5t-51.5 -73.5q-58 -53 -151 -53q-91 0 -146.5 47.5t-55.5 126.5zM347 760l222 112l11 -23l-222 -112z" />
<glyph unicode="&#xdb;" horiz-adv-x="570" d="M60 162q0 32 13 102l79 406h27l-79 -406q-13 -70 -13 -105q0 -66 47.5 -106t126.5 -40q86 0 138 50q29 28 43 66t33 135l79 406h27l-79 -406q-21 -108 -37.5 -149.5t-51.5 -73.5q-58 -53 -151 -53q-91 0 -146.5 47.5t-55.5 126.5zM223 763l184 95l144 -93l-14 -22 l-132 85l-170 -87z" />
<glyph unicode="&#xdc;" horiz-adv-x="570" d="M60 162q0 32 13 102l79 406h27l-79 -406q-13 -70 -13 -105q0 -66 47.5 -106t126.5 -40q86 0 138 50q29 28 43 66t33 135l79 406h27l-79 -406q-21 -108 -37.5 -149.5t-51.5 -73.5q-58 -53 -151 -53q-91 0 -146.5 47.5t-55.5 126.5zM320 744l21 109h27l-21 -109h-27z M431 744l21 109h27l-22 -109h-26z" />
<glyph unicode="&#xdd;" horiz-adv-x="509" d="M89 670h27l144 -410l294 410h30l-314 -441l-44 -229h-27l44 229zM327 760l222 112l11 -23l-222 -112z" />
<glyph unicode="&#xde;" horiz-adv-x="491" d="M29 0l130 670h27l-21 -107h76q72 0 108.5 -6.5t67.5 -23.5q35 -19 55 -56.5t20 -84.5q0 -49 -22 -94t-60 -71q-59 -43 -195 -43h-123l-36 -184h-27zM96 209h123q121 0 174 37q32 22 52 62.5t20 83.5q0 38 -17 70t-45 48q-48 28 -167 28h-76z" />
<glyph unicode="&#xdf;" horiz-adv-x="505" d="M19 0l92 474q14 69 28.5 103t41.5 59q48 45 126 45q68 0 111.5 -41.5t43.5 -105.5q0 -60 -36.5 -105t-98.5 -64q62 -13 95.5 -54t33.5 -106q0 -92 -57 -154.5t-141 -62.5q-70 0 -117 43.5t-47 108.5q0 11 3 32h25q-2 -22 -2 -28q0 -58 39 -95t100 -37q73 0 122.5 56 t49.5 138q0 92 -76 128q-39 18 -105 18h-10l5 25h10q83 0 133 50q49 49 49 109q0 54 -36.5 88t-94.5 34q-65 0 -107 -40q-24 -22 -37.5 -53.5t-24.5 -90.5l-93 -474h-25z" />
<glyph unicode="&#xe0;" horiz-adv-x="598" d="M36 220q0 117 76.5 196.5t188.5 79.5q82 0 145 -45t74 -113l28 146h26l-94 -484h-26l18 90q-41 -51 -82 -73q-56 -29 -121 -29q-102 0 -167.5 65.5t-65.5 166.5zM61 222q0 -94 56.5 -152.5t148.5 -58.5q100 0 168.5 72.5t68.5 178.5q0 95 -56 153t-149 58 q-100 0 -168.5 -72.5t-68.5 -178.5zM233 690l16 18l159 -137l-14 -18z" />
<glyph unicode="&#xe1;" horiz-adv-x="598" d="M36 220q0 117 76.5 196.5t188.5 79.5q82 0 145 -45t74 -113l28 146h26l-94 -484h-26l18 90q-41 -51 -82 -73q-56 -29 -121 -29q-102 0 -167.5 65.5t-65.5 166.5zM61 222q0 -94 56.5 -152.5t148.5 -58.5q100 0 168.5 72.5t68.5 178.5q0 95 -56 153t-149 58 q-100 0 -168.5 -72.5t-68.5 -178.5zM332 570l184 138l14 -18l-184 -137z" />
<glyph unicode="&#xe2;" horiz-adv-x="598" d="M36 220q0 117 76.5 196.5t188.5 79.5q82 0 145 -45t74 -113l28 146h26l-94 -484h-26l18 90q-41 -51 -82 -73q-56 -29 -121 -29q-102 0 -167.5 65.5t-65.5 166.5zM61 222q0 -94 56.5 -152.5t148.5 -58.5q100 0 168.5 72.5t68.5 178.5q0 95 -56 153t-149 58 q-100 0 -168.5 -72.5t-68.5 -178.5zM202 577l169 114l123 -115l-17 -20l-109 104l-153 -104z" />
<glyph unicode="&#xe3;" horiz-adv-x="598" d="M36 220q0 117 76.5 196.5t188.5 79.5q82 0 145 -45t74 -113l28 146h26l-94 -484h-26l18 90q-41 -51 -82 -73q-56 -29 -121 -29q-102 0 -167.5 65.5t-65.5 166.5zM61 222q0 -94 56.5 -152.5t148.5 -58.5q100 0 168.5 72.5t68.5 178.5q0 95 -56 153t-149 58 q-100 0 -168.5 -72.5t-68.5 -178.5zM242 607q31 42 81 42q28 0 79 -25q33 -15 53 -15q40 0 63 30l20 -14q-29 -42 -84 -42q-30 0 -70 20q-41 21 -63 21q-36 0 -61 -32z" />
<glyph unicode="&#xe4;" horiz-adv-x="598" d="M36 220q0 117 76.5 196.5t188.5 79.5q82 0 145 -45t74 -113l28 146h26l-94 -484h-26l18 90q-41 -51 -82 -73q-56 -29 -121 -29q-102 0 -167.5 65.5t-65.5 166.5zM61 222q0 -94 56.5 -152.5t148.5 -58.5q100 0 168.5 72.5t68.5 178.5q0 95 -56 153t-149 58 q-100 0 -168.5 -72.5t-68.5 -178.5zM275 566l21 109h26l-22 -109h-25zM377 566l21 109h26l-21 -109h-26z" />
<glyph unicode="&#xe5;" horiz-adv-x="598" d="M36 220q0 117 76.5 196.5t188.5 79.5q82 0 145 -45t74 -113l28 146h26l-94 -484h-26l18 90q-41 -51 -82 -73q-56 -29 -121 -29q-102 0 -167.5 65.5t-65.5 166.5zM61 222q0 -94 56.5 -152.5t148.5 -58.5q100 0 168.5 72.5t68.5 178.5q0 95 -56 153t-149 58 q-100 0 -168.5 -72.5t-68.5 -178.5zM270 627q0 33 24 56.5t58 23.5q32 0 55.5 -24t23.5 -56q0 -34 -23.5 -57.5t-57.5 -23.5q-33 0 -56.5 23.5t-23.5 57.5zM295 627q0 -23 16.5 -40t38.5 -17q23 0 39.5 17t16.5 40t-16.5 40t-38.5 17q-23 0 -39.5 -16.5t-16.5 -40.5z" />
<glyph unicode="&#xe6;" horiz-adv-x="1021" d="M35 218q0 56 23 112t62 94q74 72 181 72q93 0 155 -57q40 -37 58 -102l28 147h26l-19 -97q73 109 209 109q102 0 163.5 -64t61.5 -171q0 -13 -1 -22h-462q-1 -11 -1 -26q0 -86 59.5 -144t147.5 -58q139 0 210 135h28q-28 -70 -94 -114t-144 -44q-82 0 -139.5 40.5 t-84.5 117.5l-28 -146h-26l18 94q-27 -47 -82.5 -76.5t-118.5 -29.5q-101 0 -165.5 65t-64.5 165zM60 219q0 -40 18 -83t47 -71q56 -53 140 -53q99 0 165.5 72t66.5 179t-62 161q-57 49 -136 49q-96 0 -161 -68q-35 -37 -56.5 -88.5t-21.5 -97.5zM525 262h431q-1 83 -38 132 q-57 79 -162 79q-88 0 -151.5 -58t-79.5 -153z" />
<glyph unicode="&#xe7;" horiz-adv-x="562" d="M36 222q0 113 77.5 193.5t187.5 80.5q90 0 152 -50t77 -134h-27q-18 77 -70 119t-129 42q-102 0 -172.5 -72.5t-70.5 -177.5q0 -94 59.5 -153t154.5 -59q142 0 210 146h28q-28 -78 -94.5 -124.5t-146.5 -44.5l-28 -46q13 4 23 4q28 0 46 -18t18 -45q0 -32 -21 -53.5 t-52 -21.5q-29 0 -47.5 17t-20.5 44h25q10 -38 41 -38q21 0 35.5 14.5t14.5 36.5q0 19 -11.5 30t-31.5 11t-37 -26l-21 9l45 83q-65 8 -111 36q-48 29 -75.5 81.5t-27.5 115.5z" />
<glyph unicode="&#xe8;" horiz-adv-x="562" d="M36 217q0 118 75.5 198.5t185.5 80.5q103 0 168 -64t61 -166l-1 -26h-460q-1 -11 -1 -24q0 -88 57.5 -146.5t144.5 -58.5q142 0 212 136h29q-32 -74 -96 -116.5t-144 -42.5q-101 0 -166 64.5t-65 164.5zM68 263h431q-2 96 -57 153t-146 57q-86 0 -150.5 -59t-77.5 -151z M190 690l16 18l159 -137l-14 -18z" />
<glyph unicode="&#xe9;" horiz-adv-x="562" d="M36 217q0 118 75.5 198.5t185.5 80.5q103 0 168 -64t61 -166l-1 -26h-460q-1 -11 -1 -24q0 -88 57.5 -146.5t144.5 -58.5q142 0 212 136h29q-32 -74 -96 -116.5t-144 -42.5q-101 0 -166 64.5t-65 164.5zM68 263h431q-2 96 -57 153t-146 57q-86 0 -150.5 -59t-77.5 -151z M282 570l184 138l14 -18l-184 -137z" />
<glyph unicode="&#xea;" horiz-adv-x="562" d="M36 217q0 118 75.5 198.5t185.5 80.5q103 0 168 -64t61 -166l-1 -26h-460q-1 -11 -1 -24q0 -88 57.5 -146.5t144.5 -58.5q142 0 212 136h29q-32 -74 -96 -116.5t-144 -42.5q-101 0 -166 64.5t-65 164.5zM68 263h431q-2 96 -57 153t-146 57q-86 0 -150.5 -59t-77.5 -151z M182 577l169 114l123 -115l-17 -20l-109 104l-153 -104z" />
<glyph unicode="&#xeb;" horiz-adv-x="562" d="M36 217q0 118 75.5 198.5t185.5 80.5q103 0 168 -64t61 -166l-1 -26h-460q-1 -11 -1 -24q0 -88 57.5 -146.5t144.5 -58.5q142 0 212 136h29q-32 -74 -96 -116.5t-144 -42.5q-101 0 -166 64.5t-65 164.5zM68 263h431q-2 96 -57 153t-146 57q-86 0 -150.5 -59t-77.5 -151z M259 566l21 109h26l-22 -109h-25zM361 566l21 109h26l-21 -109h-26z" />
<glyph unicode="&#xec;" horiz-adv-x="166" d="M15 690l17 18l139 -137l-14 -18zM22 0l94 484h25l-94 -484h-25z" />
<glyph unicode="&#xed;" horiz-adv-x="166" d="M22 0l94 484h26l-95 -484h-25zM121 570l173 138l15 -18l-174 -137z" />
<glyph unicode="&#xee;" horiz-adv-x="166" d="M22 0l94 484h26l-95 -484h-25zM36 576l132 115l88 -117l-19 -18l-73 97l-114 -97z" />
<glyph unicode="&#xef;" horiz-adv-x="166" d="M22 0l94 484h26l-95 -484h-25zM94 566l21 109h26l-22 -109h-25zM169 566l22 109h25l-21 -109h-26z" />
<glyph unicode="&#xf0;" horiz-adv-x="568" d="M36 218q0 116 76.5 197t186.5 81q95 0 161 -59l-58 142l-82 -27l-7 22l80 28l-30 72l24 7l32 -71l79 26l9 -22l-78 -27l67 -167q34 -85 34 -154q0 -118 -76.5 -198t-188.5 -80q-99 0 -164 65t-65 165zM61 220q0 -92 57.5 -150.5t148.5 -58.5q99 0 168.5 75t69.5 181 q0 90 -57 148t-146 58q-100 0 -170.5 -74t-70.5 -179z" />
<glyph unicode="&#xf1;" horiz-adv-x="542" d="M22 0l94 484h26l-18 -92q68 104 185 104q76 0 126.5 -43t50.5 -108q0 -41 -16 -124l-43 -221h-26l43 221q15 80 15 119q0 57 -42.5 94.5t-106.5 37.5q-69 0 -120 -40q-40 -31 -61 -75t-39 -136l-43 -221h-25zM209 607q31 42 81 42q28 0 79 -25q33 -15 53 -15q40 0 63 30 l20 -14q-29 -42 -84 -42q-30 0 -70 20q-41 21 -63 21q-36 0 -61 -32z" />
<glyph unicode="&#xf2;" horiz-adv-x="567" d="M35 221q0 54 23 110t61 93q74 72 181 72q101 0 165 -64t64 -166q0 -116 -76 -197t-185 -81q-104 0 -168.5 64.5t-64.5 168.5zM60 220q0 -92 57.5 -150.5t148.5 -58.5q99 0 168.5 75t69.5 181q0 90 -57 148t-146 58q-100 0 -170.5 -74t-70.5 -179zM193 690l16 18l159 -137 l-14 -18z" />
<glyph unicode="&#xf3;" horiz-adv-x="567" d="M35 221q0 54 23 110t61 93q74 72 181 72q101 0 165 -64t64 -166q0 -116 -76 -197t-185 -81q-104 0 -168.5 64.5t-64.5 168.5zM60 220q0 -92 57.5 -150.5t148.5 -58.5q99 0 168.5 75t69.5 181q0 90 -57 148t-146 58q-100 0 -170.5 -74t-70.5 -179zM288 570l184 138l14 -18 l-184 -137z" />
<glyph unicode="&#xf4;" horiz-adv-x="567" d="M35 221q0 54 23 110t61 93q74 72 181 72q101 0 165 -64t64 -166q0 -116 -76 -197t-185 -81q-104 0 -168.5 64.5t-64.5 168.5zM60 220q0 -92 57.5 -150.5t148.5 -58.5q99 0 168.5 75t69.5 181q0 90 -57 148t-146 58q-100 0 -170.5 -74t-70.5 -179zM185 577l169 114 l123 -115l-17 -20l-109 104l-153 -104z" />
<glyph unicode="&#xf5;" horiz-adv-x="567" d="M35 221q0 54 23 110t61 93q74 72 181 72q101 0 165 -64t64 -166q0 -116 -76 -197t-185 -81q-104 0 -168.5 64.5t-64.5 168.5zM60 220q0 -92 57.5 -150.5t148.5 -58.5q99 0 168.5 75t69.5 181q0 90 -57 148t-146 58q-100 0 -170.5 -74t-70.5 -179zM219 607q31 42 81 42 q28 0 79 -25q33 -15 53 -15q40 0 63 30l20 -14q-29 -42 -84 -42q-30 0 -70 20q-41 21 -63 21q-36 0 -61 -32z" />
<glyph unicode="&#xf6;" horiz-adv-x="567" d="M35 221q0 54 23 110t61 93q74 72 181 72q101 0 165 -64t64 -166q0 -116 -76 -197t-185 -81q-104 0 -168.5 64.5t-64.5 168.5zM60 220q0 -92 57.5 -150.5t148.5 -58.5q99 0 168.5 75t69.5 181q0 90 -57 148t-146 58q-100 0 -170.5 -74t-70.5 -179zM261 566l21 109h26 l-22 -109h-25zM363 566l21 109h26l-21 -109h-26z" />
<glyph unicode="&#xf7;" d="M61 322v26h414v-26h-414zM254 170l1 69h27l-1 -69h-27zM254 500h27l1 -68h-27z" />
<glyph unicode="&#xf8;" horiz-adv-x="567" d="M29 -16l66 72q-60 65 -60 162q0 117 76.5 197.5t187.5 80.5q91 0 155 -54l66 70l18 -15l-67 -72q58 -64 58 -159q0 -116 -76 -197t-186 -81q-88 0 -154 52l-67 -72zM60 215q0 -83 53 -140l324 349q-57 48 -137 48q-101 0 -170.5 -74.5t-69.5 -182.5zM130 59 q60 -48 136 -48q99 0 168.5 74.5t69.5 180.5q0 82 -49 141z" />
<glyph unicode="&#xf9;" horiz-adv-x="542" d="M55 145q0 40 15 118l43 221h26l-44 -221q-13 -65 -13 -115q0 -59 43 -98t109 -39q86 0 144 66q28 32 41 66.5t30 119.5l44 221h25l-94 -484h-26l18 89q-69 -101 -183 -101q-77 0 -127.5 45t-50.5 112zM201 690l16 18l159 -137l-14 -18z" />
<glyph unicode="&#xfa;" horiz-adv-x="542" d="M55 145q0 40 15 118l43 221h26l-44 -221q-13 -65 -13 -115q0 -59 43 -98t109 -39q86 0 144 66q28 32 41 66.5t30 119.5l44 221h25l-94 -484h-26l18 89q-69 -101 -183 -101q-77 0 -127.5 45t-50.5 112zM309 570l184 138l14 -18l-184 -137z" />
<glyph unicode="&#xfb;" horiz-adv-x="542" d="M55 145q0 40 15 118l43 221h26l-44 -221q-13 -65 -13 -115q0 -59 43 -98t109 -39q86 0 144 66q28 32 41 66.5t30 119.5l44 221h25l-94 -484h-26l18 89q-69 -101 -183 -101q-77 0 -127.5 45t-50.5 112zM189 577l169 114l123 -115l-17 -20l-109 104l-153 -104z" />
<glyph unicode="&#xfc;" horiz-adv-x="542" d="M55 145q0 40 15 118l43 221h26l-44 -221q-13 -65 -13 -115q0 -59 43 -98t109 -39q86 0 144 66q28 32 41 66.5t30 119.5l44 221h25l-94 -484h-26l18 89q-69 -101 -183 -101q-77 0 -127.5 45t-50.5 112zM267 566l21 109h26l-22 -109h-25zM369 566l21 109h26l-21 -109h-26z " />
<glyph unicode="&#xfd;" horiz-adv-x="437" d="M37 -186l113 186l-103 484h28l96 -454l280 454h30l-415 -670h-29zM256 570l184 138l14 -18l-184 -137z" />
<glyph unicode="&#xfe;" horiz-adv-x="599" d="M-14 -186l166 856h26l-55 -282q75 109 204 109q103 0 168.5 -64.5t65.5 -166.5q0 -117 -77 -197.5t-189 -80.5q-97 0 -161 59q-39 36 -57 102l-66 -335h-25zM93 222q0 -95 55.5 -153t147.5 -58q101 0 170.5 74t69.5 180q0 91 -58 149.5t-149 58.5q-100 0 -168 -72.5 t-68 -178.5z" />
<glyph unicode="&#xff;" horiz-adv-x="437" d="M37 -186l113 186l-103 484h28l96 -454l280 454h30l-415 -670h-29zM212 566l21 109h26l-22 -109h-25zM314 566l21 109h26l-21 -109h-26z" />
<glyph unicode="&#x152;" horiz-adv-x="1077" d="M55 297q0 164 105 274.5t262 110.5q81 0 148 -31t108 -87q34 -47 51 -130l46 236h324l-5 -25h-297l-59 -300h300l-5 -25h-299l-58 -295h308l-5 -25h-335l31 157q-112 -169 -306 -169q-139 0 -226.5 86t-87.5 223zM82 294q0 -122 80.5 -201.5t204.5 -79.5q148 0 245 101 t97 254q0 130 -78 209.5t-205 79.5q-151 0 -249 -105q-45 -49 -70 -117t-25 -141z" />
<glyph unicode="&#x153;" horiz-adv-x="1027" d="M35 216q0 56 22.5 111.5t61.5 94.5q74 74 179 74q107 0 172 -71q35 -39 52 -103q68 174 241 174q62 0 113 -27t82 -77q30 -50 31 -154h-460l-1 -28q-3 -86 56 -142.5t148 -56.5q138 0 209 134h28q-31 -72 -95 -114.5t-142 -42.5q-56 0 -105.5 23t-80.5 63q-24 32 -39 82 q-31 -78 -95 -123t-144 -45q-102 0 -167.5 64t-65.5 164zM60 215q0 -91 56.5 -147.5t147.5 -56.5q98 0 168 73t70 176q0 96 -56.5 154.5t-149.5 58.5q-99 0 -167.5 -74.5t-68.5 -183.5zM532 261h430q-3 88 -42 138q-56 74 -157 74q-87 0 -151 -59t-80 -153z" />
<glyph unicode="&#x178;" horiz-adv-x="509" d="M89 670h27l144 -410l294 410h30l-314 -441l-44 -229h-27l44 229zM287 744l21 109h27l-21 -109h-27zM398 744l21 109h27l-22 -109h-26z" />
<glyph unicode="&#x2c6;" d="M155 577l169 114l123 -115l-17 -20l-109 104l-153 -104z" />
<glyph unicode="&#x2dc;" d="M162 607q31 42 81 42q28 0 79 -25q33 -15 53 -15q40 0 63 30l20 -14q-29 -42 -84 -42q-30 0 -70 20q-41 21 -63 21q-36 0 -61 -32z" />
<glyph unicode="&#x2000;" horiz-adv-x="443" />
<glyph unicode="&#x2001;" horiz-adv-x="887" />
<glyph unicode="&#x2002;" horiz-adv-x="443" />
<glyph unicode="&#x2003;" horiz-adv-x="887" />
<glyph unicode="&#x2004;" horiz-adv-x="295" />
<glyph unicode="&#x2005;" horiz-adv-x="221" />
<glyph unicode="&#x2006;" horiz-adv-x="147" />
<glyph unicode="&#x2007;" horiz-adv-x="147" />
<glyph unicode="&#x2008;" horiz-adv-x="110" />
<glyph unicode="&#x2009;" horiz-adv-x="177" />
<glyph unicode="&#x200a;" horiz-adv-x="49" />
<glyph unicode="&#x2010;" horiz-adv-x="225" d="M-3 236l5 25h224l-4 -25h-225z" />
<glyph unicode="&#x2011;" horiz-adv-x="225" d="M-3 236l5 25h224l-4 -25h-225z" />
<glyph unicode="&#x2012;" horiz-adv-x="225" d="M-3 236l5 25h224l-4 -25h-225z" />
<glyph unicode="&#x2013;" d="M44 236l5 25h409l-5 -25h-409z" />
<glyph unicode="&#x2014;" horiz-adv-x="674" d="M-3 236l5 25h674l-5 -25h-674z" />
<glyph unicode="&#x2018;" horiz-adv-x="201" d="M136 670h26l37 -157h-26z" />
<glyph unicode="&#x2019;" horiz-adv-x="193" d="M106 520l88 150h27l-88 -150h-27z" />
<glyph unicode="&#x201a;" horiz-adv-x="193" d="M-10 -76l88 150h27l-88 -150h-27z" />
<glyph unicode="&#x201c;" horiz-adv-x="291" d="M105 515l92 155h30l-93 -155h-29zM196 515l93 155h30l-93 -155h-30z" />
<glyph unicode="&#x201d;" horiz-adv-x="291" d="M105 515l93 155h29l-92 -155h-30zM197 515l93 155h29l-92 -155h-30z" />
<glyph unicode="&#x201e;" horiz-adv-x="291" d="M-8 -68l93 155h29l-92 -155h-30zM84 -68l93 155h29l-92 -155h-30z" />
<glyph unicode="&#x2022;" horiz-adv-x="670" d="M197 340q0 58 41.5 99t100.5 41q56 0 96.5 -41.5t40.5 -98.5t-41 -98t-98 -41q-58 0 -99 41t-41 98z" />
<glyph unicode="&#x2026;" d="M22 0l15 76h27l-15 -76h-27zM190 0l14 76h27l-15 -76h-26zM357 0l15 76h27l-15 -76h-27z" />
<glyph unicode="&#x202f;" horiz-adv-x="177" />
<glyph unicode="&#x2039;" horiz-adv-x="219" d="M47 247l127 164l20 -16l-119 -151l58 -150l-25 -9z" />
<glyph unicode="&#x203a;" horiz-adv-x="219" d="M25 101l119 151l-58 150l26 9l60 -162l-127 -164z" />
<glyph unicode="&#x205f;" horiz-adv-x="221" />
<glyph unicode="&#x20ac;" horiz-adv-x="682" d="M25 299l13 24h50q0 8 2 24h-60l12 24h51q26 140 127 225.5t239 85.5q141 0 231 -84l-12 -22q-86 81 -216 81t-224 -79t-117 -207h454l-12 -24h-446l-2 -24h436l-13 -24h-424q0 -125 82.5 -205.5t211.5 -80.5q131 0 228 80l-4 -35q-97 -70 -221 -70q-100 0 -178.5 46 t-116.5 126q-28 60 -29 139h-62z" />
<glyph unicode="&#x2122;" horiz-adv-x="762" d="M98 646l5 24h238l-5 -24h-107l-70 -358h-25l69 358h-105zM310 288l74 382h34l97 -352l227 352h35l-74 -382h-25l66 342l-222 -342h-24l-96 343l-67 -343h-25z" />
<glyph unicode="&#xe000;" horiz-adv-x="485" d="M0 0v485h485v-485h-485z" />
</font>
</defs>
</svg>
