<?xml version="1.0" standalone="no"?>
<!DOCTYPE svg PUBLIC "-//W3C//DTD SVG 1.1//EN" "http://www.w3.org/Graphics/SVG/1.1/DTD/svg11.dtd" >
<svg xmlns="http://www.w3.org/2000/svg">
<metadata>Generated by IcoMoon</metadata>
<defs>
<font id="ud-scmf" horiz-adv-x="512">
<font-face units-per-em="512" ascent="480" descent="-32" />
<missing-glyph horiz-adv-x="512" />
<glyph unicode="&#x20;" d="" horiz-adv-x="256" />
<glyph unicode="&#x61;" d="M168.348 275.577h42.526l-21.281 21.263-21.245-21.263zM233.761 275.577h137.366l-101.398 101.409-68.694-68.707 32.725-32.701zM258.284 388.431l11.441-11.441 11.445 11.441 112.839-112.853h91.594l-78.49 78.512c-12.656-12.646-33.14-12.646-45.793 0-12.635 12.642-12.635 33.141 0 45.782l-80.145 80.128-204.411-204.423h68.683l112.839 112.853zM485.677 146.060v113.335h-485.677v-113.314c17.887 0 32.379-14.524 32.379-32.389 0-17.868-14.492-32.392-32.379-32.392v-113.304h485.677v113.303c-17.89 0-32.371 14.502-32.371 32.371 0.003 17.89 14.481 32.389 32.371 32.389zM420.92 32.743h-16.193v-16.175h-323.774v16.175h-16.193v161.903h16.193v16.171h323.774v-16.193h16.193v-161.882zM80.954 194.625h210.453v-161.885h-210.453v161.885zM307.599 194.625h97.128v-161.885h-97.129v161.885z" horiz-adv-x="486" />
<glyph unicode="&#x62;" d="M528.594-7.162c0-0.021 0-0.042 0-0.084 0-13.669-11.089-24.754-24.775-24.754h-479.023c-13.69 0-24.775 11.085-24.775 24.754 0 0.042 0 0.063 0 0.084h-0.021c0 0 0 90.262 65.988 123.101 41.735 20.777 25.675 3.922 76.904 25.192 51.258 21.211 63.404 28.609 63.404 28.609l0.48 48.935c0 0-19.195 14.674-25.171 60.715-12.002-3.467-15.958 14.098-16.669 25.297-0.644 10.803-6.957 44.572 7.689 41.516-3 22.545-5.147 42.863-4.082 53.624 3.669 37.791 40.069 77.288 96.158 80.174 65.967-2.887 92.097-42.349 95.762-80.136 1.065-10.778-1.292-31.121-4.293-53.611 14.646 3 8.295-30.692 7.588-41.516-0.669-11.178-4.709-28.689-16.695-25.233-6.001-46.028-25.188-60.589-25.188-60.589l0.454-48.671c0 0 12.128-6.94 63.387-28.171s35.17-5.353 76.925-26.13c65.971-32.839 65.971-123.101 65.971-123.101h-0.021z" horiz-adv-x="529" />
<glyph unicode="&#x63;" d="M503.601 177.851h-16.784v-41.978c0-1.731-0.173-3.423-0.518-5.077-0.232-1.132-0.637-2.186-1.022-3.286-0.173-0.482-0.25-0.981-0.441-1.441-0.409-0.923-0.964-1.805-1.481-2.731-0.286-0.5-0.518-1.041-0.85-1.541-0.827-1.231-1.772-2.327-2.786-3.386-0.113-0.113-0.173-0.232-0.286-0.346-4.481-4.459-10.671-7.226-17.48-7.34-0.113 0-0.214-0.022-0.327-0.022v0 0c-6.94 0-13.248 2.827-17.807 7.363l-59.767 59.784h-232.966c-13.921 0-25.188 11.267-25.188 25.17v251.796c0 13.908 11.267 25.183 25.188 25.183h352.517c13.903 0 25.17-11.276 25.17-25.183v-251.8c0-13.899-11.271-25.166-25.17-25.166zM373.628 152.658l53.094-53.090 0.077 0.077c9.036-8.712 21.288-14.112 34.824-14.112v-16.808c0-13.903-11.267-25.152-25.17-25.152v0h-266.563l-68.147-68.166c-4.558-4.577-10.867-7.404-17.807-7.404v0 0c-0.114 0-0.209 0.059-0.323 0.059-6.808 0.059-12.998 2.863-17.484 7.344-0.114 0.096-0.168 0.214-0.282 0.327-1.022 1.055-1.964 2.173-2.791 3.382-0.327 0.5-0.536 1.041-0.846 1.559-0.518 0.882-1.077 1.772-1.481 2.731-0.191 0.445-0.273 0.964-0.446 1.404-0.382 1.1-0.786 2.177-1.018 3.313-0.346 1.632-0.518 3.345-0.518 5.077v0 50.368h-33.596c-13.903 0-25.152 11.267-25.152 25.152v285.383c0 13.899 11.267 25.174 25.17 25.174h75.551v-176.258c0-27.806 22.538-50.363 50.363-50.363h222.544z" horiz-adv-x="529" />
<glyph unicode="&#x64;" d="M36.575 480h512c20.176 0 36.552-16.368 36.552-36.575s-16.376-36.583-36.552-36.583h-512c-20.198 0-36.575 16.376-36.575 36.583s16.376 36.575 36.575 36.575zM36.575 260.56h512c20.176 0 36.552-16.361 36.552-36.575 0-20.175-16.376-36.582-36.552-36.582h-512c-20.198 0.007-36.575 16.407-36.575 36.582 0 20.214 16.376 36.575 36.575 36.575zM36.575 41.127h512c20.176 0 36.552-16.376 36.552-36.551 0-20.207-16.376-36.582-36.552-36.582h-512c-20.198 0.007-36.575 16.384-36.575 36.582 0 20.175 16.376 36.551 36.575 36.551z" horiz-adv-x="585" />
<glyph unicode="&#x65;" d="M85.868 346.038c0 36.168 29.309 68.238 65.431 68.238 42.941 0 70.196-28.658 70.196-71.635h57.462c-16.883-32.731-26.831-69.726-27.957-109.201-64.331 47.913-165.133 41.503-165.133 112.597zM476.594 37.086c-88.184 14.375-153.54 97.536-153.54 187.498 0 103.038 79.059 189.022 181.971 189.022 57.937 0 101.554-27.3 137.672-69.611h44.486l-210.588-306.909zM1149.755 410.192h200.181l-0.338 69.808-291.837-0.207-185.378-268.868v268.868h-92.005l-71.105-103.618c-14.874 21.031-31.762 38.419-54.994 55.166-42.937 30.030-97.461 47.772-150.618 47.772-88.901 0-166.981-45.349-212.067-114.707-9.524 70.141-65.326 114.702-140.296 114.702s-137.667-56.639-137.667-133.068c0-96.9 62.019-119.421 137.667-148.079 41.573-16.373 79.74-28.653 79.74-81.199 0-48.458-29.985-83.248-79.74-83.248-51.799 0-79.74 41.624-79.74 89.385h-71.559c0-89.385 61.338-154.897 151.299-154.897 74.345 0 130.913 42.764 147.201 108.539 45.728-64.765 120.108-107.853 204.476-107.853 94.74 0 177.206 49.124 223.56 131.030h-87.927c-17.428-20.31-39.156-37.026-63.378-48.428l221.505 331.594h1.357v-414.882l74.289 113.274 201.054 301.608h0.878l0.267-414.887 75.178 0.005v223.822h116.342v68.238h-116.342v150.133z" horiz-adv-x="1350" />
<glyph unicode="&#x66;" d="M260.491-32c-10.083 0-20.147 3.911-27.851 11.793l-232.639 244.197 232.639 244.197c15.39 15.744 40.313 15.744 55.703 0 15.39-15.724 15.39-41.236 0-56.942l-183.108-187.255 183.108-187.236c15.39-15.724 15.39-41.217 0-56.942-7.685-7.901-17.769-11.813-27.851-11.813zM589.52 184.955h-506.595c-21.739 0-39.389 18.024-39.389 40.293 0 22.23 17.631 40.274 39.389 40.274h506.575c21.778 0 39.389-18.043 39.389-40.274 0.019-22.269-17.591-40.293-39.37-40.293z" horiz-adv-x="629" />
<glyph unicode="&#x67;" d="M368.399-32c10.083 0 20.147 3.911 27.851 11.793l232.659 244.197-232.659 244.197c-15.39 15.744-40.313 15.744-55.703 0-15.37-15.724-15.37-41.236 0-56.942l183.109-187.255-183.108-187.236c-15.37-15.724-15.37-41.217 0-56.942 7.705-7.901 17.769-11.813 27.851-11.813zM39.389 184.955h506.575c21.739 0 39.389 18.024 39.389 40.293 0 22.23-17.631 40.274-39.389 40.274h-506.575c-21.778 0-39.389-18.043-39.389-40.274 0-22.269 17.611-40.293 39.389-40.293z" horiz-adv-x="629" />
<glyph unicode="&#x68;" d="M448.010 480h-384.008c-35.328 0-64.001-28.673-64.001-63.99v-384.008c0-35.329 28.672-64.002 64.001-64.002h384.008c35.329 0 64.001 28.673 64.001 64.001v384.008c0 35.318-28.673 63.99-64.001 63.99zM256.005 287.996c58.945 0 64.001-63.99 64.001-63.99s1.899-64.001-64.001-64.001c-65.858 0-64.001 64.001-64.001 64.001s5.056 63.99 64.001 63.99zM448.010 64.002c0-17.697-14.305-32-32-32h-320.007c-17.697 0-32.001 14.305-32.001 32v160.004c0 17.685 14.305 32.001 32.001 32.001h36.545c-2.688-10.293-4.544-20.875-4.544-32 0-70.69 57.313-128.002 128.002-128.002s128.002 57.313 128.002 128.002c0 11.125-1.899 21.707-4.555 32h36.555c17.697 0 32-14.315 32-32v-160.003zM448.010 352.008c0-17.664-14.305-32-32-32h-32c-17.664 0-32 14.337-32 32v32.001c0 17.654 14.337 32 32 32h32c17.697 0 32-14.347 32-32v-32.001z" />
<glyph unicode="&#x69;" d="M731.419 370.674c0 60.35-48.936 109.326-109.34 109.326h-512.794c-60.363 0-109.285-48.976-109.285-109.326v-293.308c0-60.349 48.923-109.366 109.285-109.366h512.808c60.403 0 109.34 49.017 109.34 109.366v293.308zM292.581 100.273v275.488l208.841-137.764-208.841-137.724z" horiz-adv-x="732" />
<glyph unicode="&#x6a;" d="M58.857 197.060v-229.060h111.427v227.974h76.070l18.401 95.034h-93.672c0 0 0 44.706 0 69.711 0 9.635 5.141 22.496 20.735 22.496 24.022 0 54.147 0 54.147 0v96.785c0 0-48.802 0-101.116 0-34.886 0-86.381-42.966-86.381-88.634 0-47.041 0-97.655 0-97.655h-58.468v-96.242l58.857-0.409z" horiz-adv-x="265" />
<glyph unicode="&#x6b;" d="M658.997 252.381c41.693 3.447 70.025 22.41 80.942 48.181-15.047-9.252-61.798-19.411-87.633-9.711-1.249 5.986-2.657 11.792-4.034 16.967-19.71 72.309-87.004 130.457-157.583 123.372 5.688 2.273 11.503 4.546 17.277 6.445 7.78 2.721 53.378 10.159 46.164 26.305-6.082 14.065-61.712-10.703-72.224-13.979 13.851 5.186 36.752 14.075 39.206 30.040-21.247-2.892-42.024-12.891-58.106-27.575 5.805 6.35 10.202 13.969 11.141 22.132-56.569-36.112-89.596-108.954-116.307-179.63-21.001 20.414-39.591 36.379-56.27 45.268-46.837 25.12-102.861 51.265-190.729 83.919-2.668-29.036 14.364-67.774 63.58-93.449-10.639 1.452-30.147-1.729-45.706-5.453 6.328-33.38 27.063-60.773 83.215-74.027-25.654-1.729-38.897-7.534-50.966-20.148 11.728-23.125 40.242-50.432 91.538-44.809-57.017-24.587-23.221-70.132 23.135-63.334-79.106-81.711-203.972-75.735-275.64-7.31 187.090-255.024 593.86-150.882 654.495 94.793 45.449-0.448 72.17 15.783 88.7 33.487-26.177-4.46-64.092 0.171-84.197 8.516z" horiz-adv-x="743" />
<glyph unicode="&#x6c;" d="M183.64 315.322c0 0-101.558-11.249-169.306-18.769-6.107-0.739-11.505-4.821-13.53-11.024s0-12.663 4.5-16.744c50.329-45.926 125.951-114.702 125.951-114.702-0.065 0-20.761-100.048-34.517-166.799-1.157-6.042 1.028-12.438 6.299-16.262 5.239-3.825 11.987-3.889 17.291-0.868 59.263 33.649 148.030 84.299 148.030 84.299s88.831-50.651 147.966-84.364c5.399-2.957 12.18-2.893 17.387 0.932 5.271 3.825 7.456 10.22 6.267 16.23-13.755 66.784-34.389 166.832-34.389 166.832s75.622 68.776 125.919 114.606c4.532 4.21 6.524 10.67 4.532 16.841s-7.392 10.252-13.498 10.959c-67.748 7.585-169.37 18.833-169.37 18.833s-42.101 93.137-70.159 155.229c-2.635 5.56-8.163 9.449-14.655 9.449s-12.052-3.921-14.559-9.449c-28.089-62.092-70.159-155.229-70.159-155.229z" horiz-adv-x="537" />
<glyph unicode="&#x6d;" d="M313.055 239.814c19.534 0.023 35.375 15.903 35.375 35.498 0 18.398-28.71 53.143-34.569 74.551v0c0 0-0.115 0.43-0.13 0.499h-0.007c-0.038 0.33-0.322 0.591-0.661 0.591-0.346 0-0.63-0.261-0.668-0.591h-0.007c-0.015-0.077-0.13-0.499-0.13-0.499v0c-5.859-21.408-34.577-56.146-34.577-74.551-0.007-19.596 15.825-35.475 35.375-35.498zM256.579 180.267c17.837-7.563 36.796-11.395 56.322-11.395 19.534 0 38.485 3.832 56.322 11.395 17.231 7.303 32.711 17.753 45.995 31.075s23.727 28.826 31.014 46.094c7.541 17.883 11.365 36.873 11.365 56.453s-3.824 38.562-11.365 56.445c-7.287 17.277-17.73 32.788-31.014 46.102s-28.764 23.773-45.995 31.075c-17.837 7.563-36.788 11.402-56.322 11.402s-38.485-3.839-56.322-11.402c-17.238-7.303-32.71-17.753-45.995-31.075s-23.719-28.826-31.014-46.102c-7.548-17.875-11.372-36.865-11.372-56.445s3.832-38.57 11.372-56.453c7.287-17.269 17.722-32.78 31.014-46.094s28.756-23.773 45.995-31.075zM312.387 430.496c0 0.008 0.007 0.023 0.007 0.031s0 0.016 0 0.016c0.007 0.038 0.023 0.077 0.038 0.123 0.1 0.238 0.338 0.414 0.622 0.414 0.276 0 0.514-0.169 0.622-0.414 0.015-0.046 0.023-0.084 0.038-0.123 0 0 0-0.008 0-0.016s0.007-0.023 0.007-0.031c8.991-42.577 70.52-115.77 70.52-153.963 0-39.406-31.866-71.357-71.188-71.38-39.322 0.023-71.188 31.974-71.188 71.38 0 38.193 61.521 111.393 70.52 153.963zM550.009 40.678h21.914v75.258h-21.914v-75.258zM478.652 115.935h-21.853v-30.115l-38.677 30.215v-21.308c-6.082 12.616-18.974 21.308-33.878 21.308-14.966 0-27.897-8.769-33.947-21.454-1.797 3.709-4.284 7.149-7.433 10.305-7.356 7.364-16.187 11.042-26.507 11.042-5.122 0-10.228 0-15.311 0s-10.19 0-13.913 0v-75.142h29.224c10.313 0 19.151 3.678 26.507 11.042 3.148 3.163 5.628 6.596 7.44 10.313 6.043-12.685 18.974-21.454 33.94-21.454 14.904 0 27.796 8.7 33.878 21.315v-21.315h21.853v30.322l38.677-30.223v75.151zM329.642 73.020c-0.661-1.72-1.728-3.317-3.179-4.776-2.196-2.196-4.592-3.455-7.195-3.786-2.596-0.33-5.252-0.461-7.955-0.392-0.438 0-0.844 0-1.205 0-0.368 0-0.729 0-1.098 0v28.457h7.356c4.315 0 7.771-1.459 10.366-4.392s3.901-6.228 3.901-9.89c0-1.759-0.33-3.502-0.99-5.221zM384.244 62.477c-8.762 0-15.849 7.111-15.849 15.88s7.095 15.872 15.849 15.872c8.753 0 15.849-7.111 15.849-15.872 0-8.769-7.095-15.88-15.849-15.88zM522.742 85.82l-38.677 30.215v-75.35h21.853v30.322l38.677-30.223v75.151h-21.853v-30.115zM162.072 8.435c-1.758 0.476-4.354 0.714-7.794 0.714h-7.026v-41.142h6.196v16.709h2.88c4.277 0 7.671 1.106 10.19 3.31s3.778 5.183 3.778 8.953c0 3.524-1.175 6.435-3.532 8.746-1.359 1.32-2.918 2.227-4.691 2.711zM155.768-9.533h-2.319v12.954h2.050c5.867 0 8.799-2.111 8.799-6.365 0.007-4.392-2.841-6.588-8.531-6.588zM208.957-10.438c1.667 2.096 2.503 4.607 2.503 7.517 0 3.74-1.328 6.742-3.993 9.014-2.411 2.043-6.327 3.056-11.756 3.056h-7.264v-41.142h6.196v16.839l12.846-16.839h7.579l-13.315 17.53c3.064 0.469 5.536 1.92 7.202 4.024zM194.652-9.748v13.062h2.212c5.705 0 8.561-2.104 8.561-6.312 0-4.5-2.933-6.75-8.808-6.75h-1.965zM389.972-18.663l-29.947 27.812v-41.142h6.197v27.735l29.947-27.735v41.142h-6.197v-27.812zM413.476 3.314h9.445v-35.314h6.197v35.314h9.421v5.836h-25.063v-5.836zM289.575-7.69l-4.092 1.62c-2.979 1.183-4.469 2.741-4.469 4.676 0 1.413 0.568 2.572 1.704 3.502 1.137 0.937 2.557 1.421 4.284 1.421 1.405 0 2.55-0.276 3.433-0.822 0.783-0.445 1.329-0.814 2.135-2.089l5.682 1.928c-2.664 4.216-6.58 6.603-11.195 6.603-3.509 0-6.442-1.006-8.8-3.026-2.358-2.004-3.532-4.5-3.532-7.479 0-4.408 2.81-7.763 8.431-10.067l3.97-1.582c1.029-0.438 1.912-0.883 2.657-1.351 0.745-0.476 1.351-0.983 1.82-1.521s0.814-1.129 1.036-1.766c0.223-0.637 0.33-1.351 0.33-2.12 0-1.912-0.637-3.494-1.912-4.738-1.283-1.252-2.88-1.873-4.815-1.873-2.442 0-4.308 0.853-5.582 2.565-0.699 0.875-1.19 1.252-1.474 3.478l-6.074-2.058c0.668-2.979 2.027-4.723 4.062-6.558 2.327-2.043 5.267-3.056 8.83-3.056 3.755 0 6.903 1.19 9.437 3.594 2.519 2.388 3.778 5.398 3.778 9.053 0 2.718-0.768 5.029-2.312 6.903-1.559 1.873-4 3.463-7.333 4.76zM469.652-7.69l-4.092 1.62c-2.979 1.183-4.469 2.741-4.469 4.676 0 1.413 0.568 2.572 1.712 3.502 1.121 0.937 2.557 1.421 4.277 1.421 1.413 0 2.55-0.276 3.433-0.822 0.783-0.445 1.329-0.814 2.127-2.089l5.682 1.928c-2.664 4.216-6.58 6.603-11.188 6.603-3.509 0-6.45-1.006-8.8-3.026-2.365-2.004-3.54-4.5-3.54-7.479 0-4.408 2.803-7.763 8.431-10.067l3.962-1.582c1.036-0.438 1.92-0.883 2.672-1.351 0.737-0.476 1.351-0.983 1.812-1.521 0.476-0.538 0.814-1.129 1.036-1.766s0.338-1.351 0.338-2.12c0-1.912-0.637-3.494-1.912-4.738-1.274-1.252-2.88-1.873-4.815-1.873-2.45 0-4.315 0.853-5.598 2.565-0.691 0.875-1.183 1.252-1.466 3.478l-6.074-2.058c0.675-2.979 2.027-4.723 4.062-6.558 2.327-2.043 5.267-3.056 8.83-3.056 3.755 0 6.903 1.19 9.437 3.594 2.511 2.388 3.77 5.398 3.77 9.053 0 2.718-0.768 5.029-2.312 6.903s-3.978 3.463-7.317 4.76zM187.15 47.036c-4.684 4.692-8.108 9.952-10.267 15.711-0.783-0.115-1.582-0.169-2.404-0.169-4.377 0-8.101 1.543-11.18 4.63s-4.623 6.819-4.623 11.211c0 4.315 1.543 8.017 4.623 11.096s6.803 4.63 11.18 4.63c0.814 0 1.597-0.062 2.365-0.169 2.157 5.813 5.597 11.088 10.304 15.818 1.013 1.014 2.050 1.966 3.11 2.856-4.799 2.265-10.066 3.394-15.787 3.394-10.328 0-19.166-3.678-26.522-11.050-6.335-6.342-9.936-13.798-10.811-22.353-0.645 0.384-1.321 0.752-2.035 1.091-2.319 1.098-4.868 1.974-7.579 2.618l-6.15 1.428c-0.499 0.13-1.052 0.253-1.674 0.392-0.745 0.161-1.475 0.407-2.15 0.737-0.752 0.361-1.397 0.837-1.912 1.413-0.653 0.729-0.983 1.704-0.983 2.887 0 1.205 0.323 2.235 0.96 3.048 0.537 0.699 1.198 1.26 1.958 1.674 0.699 0.377 1.49 0.661 2.35 0.814 0.799 0.161 1.551 0.238 2.242 0.238 3.179 0 6.205-0.606 8.999-1.805 1.328-0.56 1.835-0.707 2.549-1.060 2.166 4.968 5.314 9.545 9.437 13.683 0.131 0.138 0.261 0.253 0.392 0.384-6.358 3.509-14.536 5.774-21.969 5.774-3.885 0-7.717-0.606-11.388-1.789-3.647-1.183-6.942-2.925-9.798-5.19-2.826-2.227-5.129-5.022-6.857-8.3-1.697-3.24-2.557-7.003-2.557-11.219 0-2.711 0.46-5.122 1.374-7.172 0.921-2.081 2.204-3.901 3.808-5.421 1.628-1.543 3.563-2.818 5.743-3.778 2.242-0.99 4.638-1.72 7.133-2.158l5.513-1.029c0.561-0.13 1.198-0.253 1.904-0.392 0.86-0.161 1.651-0.407 2.365-0.729 0.844-0.392 1.551-0.945 2.12-1.666 0.638-0.822 0.96-1.882 0.96-3.156 0-1.29-0.361-2.396-1.075-3.279-0.606-0.76-1.359-1.382-2.25-1.851-0.844-0.461-1.789-0.768-2.787-0.937-0.898-0.146-1.736-0.223-2.488-0.223-3.394 0-6.657 0.745-9.706 2.188-1.282 0.615-2.549 1.298-3.763 2.043l-8.831-16.041c3.133-1.344 6.496-2.457 10.059-3.34 4.922-1.205 9.736-1.82 14.32-1.82 3.84 0 7.678 0.538 11.395 1.605 3.67 1.052 6.972 2.68 9.821 4.83 2.818 2.142 5.121 4.815 6.841 7.962 0.222 0.407 0.438 0.829 0.63 1.26 1.16-1.559 2.457-3.056 3.893-4.507 7.356-7.364 16.186-11.042 26.522-11.042 5.72 0 10.981 1.129 15.787 3.387-1.067 0.875-2.112 1.827-3.118 2.841zM218.448 116.036c-20.77 0-37.595-16.862-37.595-37.671s16.832-37.679 37.594-37.679c20.763 0 37.594 16.87 37.594 37.679s-16.832 37.671-37.594 37.671zM218.448 62.477c-8.754 0-15.849 7.111-15.849 15.88s7.095 15.872 15.849 15.872c8.754 0 15.849-7.111 15.849-15.872 0-8.769-7.095-15.88-15.849-15.88zM63.364 94.136c-1.812 3.877-4.361 7.464-7.648 10.743-7.356 7.364-16.186 11.042-26.499 11.042-5.122 0-10.228 0-15.303 0-5.091 0-10.19 0-13.914 0v-75.135h29.224c10.313 0 19.151 3.678 26.499 11.042 3.279 3.286 5.828 6.873 7.648 10.743v-21.892h21.907v75.258h-21.915v-21.8zM42.501 73.020c-0.653-1.72-1.72-3.317-3.179-4.776-2.196-2.196-4.592-3.455-7.187-3.786s-5.252-0.461-7.955-0.392c-0.438 0-0.845 0-1.206 0-0.369 0-0.73 0-1.098 0v28.457h7.356c4.316 0 7.77-1.459 10.374-4.392 2.596-2.933 3.893-6.228 3.893-9.89-0.008-1.759-0.338-3.502-0.998-5.221zM625.835 97.368v18.567h-48.498v-75.258h48.498v18.567h-26.591v9.821h26.591v18.567h-26.591v9.736h26.591zM232.346-32h22.66v5.836h-16.463v12.055h16.463v5.836h-16.463v11.587h16.463v5.836h-22.66v-41.15zM317.786-32h22.652v5.836h-16.463v12.055h16.463v5.836h-16.463v11.587h16.463v5.836h-22.652v-41.15zM195.689 196.414c15.219-15.25 32.949-27.236 52.691-35.598 20.44-8.669 42.147-13.062 64.523-13.062s44.091 4.392 64.531 13.062c19.734 8.362 37.464 20.341 52.683 35.598s27.175 33.025 35.521 52.805c8.646 20.479 13.023 42.24 13.023 64.661s-4.377 44.183-13.023 64.661c-8.346 19.78-20.302 37.556-35.521 52.805s-32.941 27.236-52.683 35.598c-20.44 8.669-42.156 13.053-64.531 13.053s-44.082-4.385-64.523-13.053c-19.742-8.362-37.464-20.34-52.691-35.598-15.219-15.249-27.174-33.025-35.521-52.805-8.646-20.479-13.030-42.24-13.030-64.661s4.385-44.183 13.030-64.661c8.355-19.78 20.302-37.548 35.521-52.805zM312.902 469.941c85.87 0 155.729-70.005 155.729-156.060s-69.852-156.059-155.73-156.059c-85.87 0-155.73 70.005-155.73 156.060s69.868 156.060 155.73 156.060z" horiz-adv-x="626" />
<glyph unicode="&#x6e;" d="M236.157 140.408l83.582 83.592-83.582 83.582zM256 480c-141.385 0-256-114.615-256-256s114.615-256 256-256c141.385 0 256 114.615 256 256s-114.615 256-256 256zM256-0.653c-124.082 0-224.653 100.592-224.653 224.653 0 124.071 100.571 224.653 224.653 224.653 124.060 0 224.653-100.572 224.653-224.653 0-124.060-100.592-224.653-224.653-224.653z" />
<glyph unicode="&#x6f;" d="M0 436.868l682.183-468.868 682.269 468.868-72.796 43.132-609.473-418.789-609.388 418.789-72.796-43.132z" horiz-adv-x="1365" />
<glyph unicode="&#x70;" d="M0 480h102.4v-512h-102.4v512zM307.2 480h102.4v-512h-102.4v512zM614.4 480h102.4v-512h-102.4v512zM921.6 480h102.4v-512h-102.4v512z" horiz-adv-x="1024" />
<glyph unicode="&#x71;" d="M507.267 41.509l-89.313 89.298c22.641 35.305 35.93 77.204 35.93 122.244 0.014 125.342-101.592 226.949-226.935 226.949s-226.949-101.607-226.949-226.949c0-125.357 101.607-226.949 226.949-226.949 45.055 0 86.925 13.303 122.229 35.93l89.298-89.313c6.296-6.296 16.629-6.296 22.911 0l45.893 45.865c6.296 6.296 6.296 16.629-0.014 22.925zM226.949 90.94c-89.384 0-162.096 72.726-162.096 162.111s72.713 162.096 162.096 162.096c89.37 0 162.096-72.713 162.096-162.096s-72.726-162.111-162.096-162.111z" />
<glyph unicode="&#x72;" d="M485.517-32h-105.931c-14.618 0-26.483 11.865-26.483 26.483s11.865 26.483 26.483 26.483h42.002l-131.619 131.69c-4.625 4.767-7.486 11.228-7.486 18.379 0 14.618 11.865 26.483 26.483 26.483 7.151 0 13.612-2.86 18.379-7.486l0.036 0.036 131.654-131.655v42.002c0 14.618 11.865 26.483 26.483 26.483s26.483-11.865 26.483-26.483v-105.931c0-14.618-11.865-26.483-26.483-26.483zM485.517 321.103c-14.618 0-26.483 11.846-26.483 26.483v41.984l-131.69-131.62c-4.767-4.608-11.228-7.468-18.379-7.468-14.618 0-26.483 11.847-26.483 26.483 0 7.151 2.86 13.612 7.486 18.379l-0.036 0.036 131.655 131.655h-42.002c-14.618 0-26.483 11.846-26.483 26.483 0 14.619 11.865 26.483 26.483 26.483h105.931c14.618 0 26.483-11.864 26.483-26.483v-105.931c0-14.636-11.865-26.483-26.483-26.483zM222.084 152.62l-131.655-131.654h41.984c14.636 0 26.483-11.865 26.483-26.483s-11.846-26.483-26.483-26.483h-105.931c-14.618 0-26.483 11.865-26.483 26.483v105.931c0 14.618 11.864 26.483 26.483 26.483 14.636 0 26.483-11.865 26.483-26.483v-42.002l131.69 131.619c4.767 4.625 11.228 7.486 18.379 7.486 14.636 0 26.483-11.865 26.483-26.483 0-7.151-2.86-13.612-7.468-18.379l0.036-0.036zM203.035 250.483c-7.15 0-13.612 2.86-18.379 7.468l-0.036-0.036-131.655 131.655v-41.984c0-14.636-11.846-26.483-26.483-26.483-14.618 0-26.483 11.846-26.483 26.483v105.931c0 14.618 11.864 26.483 26.483 26.483h105.931c14.636 0 26.483-11.865 26.483-26.483 0-14.636-11.846-26.483-26.483-26.483h-41.984l131.619-131.69c4.608-4.767 7.468-11.228 7.468-18.379 0-14.636-11.846-26.483-26.483-26.483z" />
<glyph unicode="&#x73;" d="M529.64-5.519c0-14.625-11.856-26.481-26.481-26.481-5.663 0-10.877 1.813-15.196 4.827l-0.102-0.122-128.371 96.289-178.971-97.572c-3.829-2.118-8.127-3.422-12.792-3.422-6.050 0-11.55 2.098-16.011 5.521l-139.616 104.722c-7.252 4.705-12.1 12.853-12.1 22.183v353.094c0 14.606 11.876 26.481 26.502 26.481 6.274 0 11.937-2.261 16.48-5.907v0l126.966-95.23 179.928 98.082c3.626 1.874 7.7 3.055 12.059 3.055 6.274 0 11.937-2.261 16.479-5.908h0.021l139.026-104.274c0.692-0.448 1.324-0.957 1.976-1.487l0.245-0.163h-0.020c6.071-4.848 10.001-12.222 10.001-20.573v-353.114zM141.266 47.565v286.627l-88.284 66.202v-286.627l88.284-66.202zM335.453 408.807l-141.245-77.019v-292.615l141.245 77.039v292.594zM476.678 334.192l-88.263 66.202v-286.87l88.263-66.202v286.87z" horiz-adv-x="530" />
<glyph unicode="&#x74;" d="M256-32c-141.391 0-256 114.609-256 256 0 141.371 114.609 256 256 256s256-114.629 256-256c0-141.391-114.609-256-256-256zM256 431.99c-114.865 0-207.99-93.125-207.99-207.99 0-114.885 93.125-207.99 207.99-207.99 114.885 0 207.99 93.125 207.99 207.99s-93.105 207.99-207.99 207.99zM359.995 199.995h-103.995c-13.253 0-24.005 10.733-24.005 24.005v143.99c0 13.253 10.752 24.005 24.005 24.005s24.005-10.752 24.005-24.005v-120.005h80.010c13.253 0 24.005-10.752 24.005-24.005-0.019-13.253-10.772-23.985-24.024-23.985z" />
<glyph unicode="&#x75;" d="M488-32h-464c-13.248 0-24 10.752-24 24v400c0 13.248 10.752 24 24 24h48v-24c0-30.933 25.067-56 56-56s56 25.067 56 56v24h144v-24c0-30.933 25.088-56 56-56s56 25.067 56 56v24h48c13.248 0 24-10.752 24-24v-400c0-13.248-10.752-24-24-24zM464 288h-416v-272h416v272zM158.357 122.24c4.16 4.928 9.046 9.472 14.678 13.654 5.611 4.139 11.542 8.406 17.77 12.693 3.179 2.219 6.592 4.459 10.197 6.762 3.606 2.262 6.912 4.822 9.877 7.552 2.965 2.752 5.482 5.888 7.488 9.344 2.006 3.435 3.030 7.424 3.030 11.882 0 7.062-2.048 12.608-6.144 16.534-4.075 3.947-9.322 5.888-15.702 5.888-4.309 0-7.936-1.024-10.922-3.029s-5.376-4.651-7.168-7.894-3.094-6.87-3.84-10.837c-0.768-3.968-1.152-7.851-1.152-11.755h-28.288c-0.278 8.341 0.683 16.064 2.901 23.19 2.219 7.147 5.547 13.397 9.984 18.731s10.006 9.494 16.746 12.48c6.742 2.987 14.464 4.48 23.19 4.48 6.656 0 12.992-1.046 19.050-3.114 6.037-2.090 11.328-5.056 15.915-8.939 4.565-3.882 8.214-8.704 10.923-14.358 2.709-5.696 4.053-12.032 4.053-19.115 0-7.382-1.173-13.675-3.542-18.923-2.346-5.291-5.462-9.984-9.344-14.038-3.882-4.096-8.298-7.808-13.206-11.115-4.928-3.328-9.877-6.656-14.869-9.899-4.992-3.221-9.834-6.72-14.571-10.496-4.714-3.755-8.875-8.106-12.48-13.099h68.864v-25.344h-106.944c0 8.448 1.216 15.808 3.648 22.058 2.411 6.229 5.718 11.819 9.856 16.704zM296.896 110.827c4.288-3.99 9.771-5.909 16.448-5.909 3.904 0 7.402 0.789 10.496 2.368 3.115 1.579 5.781 3.69 7.894 6.25 2.154 2.538 3.818 5.546 4.992 8.96 1.195 3.37 1.771 6.87 1.771 10.496 0 3.733-0.555 7.253-1.664 10.582-1.13 3.307-2.795 6.25-4.992 8.747-2.197 2.474-4.864 4.416-7.872 5.803-3.094 1.344-6.635 2.070-10.624 2.070-5.291 0-9.579-0.938-12.885-2.816-3.307-1.856-6.442-4.822-9.344-8.832h-26.645l14.336 80.49h81.322v-24.341h-60.096l-5.803-33.088 0.448-0.426c4.010 4.010 8.32 6.912 12.885 8.618 4.565 1.728 9.771 2.603 15.574 2.603 7.211 0 13.611-1.322 19.136-3.968s10.219-6.166 14.038-10.624c3.798-4.416 6.678-9.664 8.683-15.68 2.048-5.995 3.072-12.438 3.072-19.2 0-7.531-1.43-14.464-4.373-20.906-2.923-6.442-6.805-12.032-11.755-16.747s-10.646-8.363-17.195-10.923c-6.528-2.56-13.462-3.798-20.8-3.627-7.082 0-13.824 0.918-20.288 2.795s-12.16 4.757-17.173 8.618c-4.95 3.882-8.96 8.704-11.947 14.464s-4.544 12.459-4.672 20.075h29.526c0.747-6.592 3.2-11.882 7.51-15.851zM384 368c-13.248 0-24 10.752-24 24v64c0 13.248 10.752 24 24 24s24-10.752 24-24v-64c0-13.269-10.752-24-24-24zM128 368c-13.248 0-24 10.752-24 24v64c0 13.248 10.752 24 24 24 13.269 0 24-10.752 24-24v-64c0-13.269-10.731-24-24-24z" />
<glyph unicode="&#x76;" d="M414.697 126.589c-27.078 17.468-60.202 17.428-86.866 3.328l-155.22 100.218 149.903 89.406c26.152-14.966 59.217-16.188 86.945 0.315 40.764 24.321 54.175 77.334 29.875 118.159-24.361 40.824-77.374 54.156-118.159 29.914-27.688-16.562-42.38-46.259-41.611-76.37l-143.602-85.645c-1.083 0.788-1.97 1.773-3.092 2.501-39.918 25.759-93.365 14.258-119.143-25.699-25.739-39.918-14.219-93.365 25.719-119.124 27.078-17.488 60.221-17.448 86.866-3.407l156.067-100.69c-1.812-30.091 11.816-60.3 38.855-77.788 39.977-25.719 93.385-14.258 119.163 25.68 25.739 39.977 14.219 93.385-25.7 119.202z" horiz-adv-x="454" />
<glyph unicode="&#x77;" d="M538.462 47.451h-359.786l-71.675-71.707c-4.767-4.8-11.392-7.743-18.719-7.743v0 0c-0.128 0-0.224 0.032-0.32 0.032-7.168 0.064-13.695 3.008-18.399 7.712-0.096 0.096-0.192 0.256-0.288 0.352-1.056 1.088-2.080 2.272-2.944 3.552-0.352 0.512-0.608 1.088-0.896 1.632-0.544 0.928-1.12 1.856-1.568 2.88-0.192 0.512-0.288 1.024-0.48 1.504-0.416 1.152-0.832 2.272-1.056 3.488-0.352 1.728-0.576 3.488-0.576 5.344v0 52.988h-35.262c-14.623 0-26.494 11.839-26.494 26.462v379.56c0 14.623 11.871 26.462 26.494 26.462h511.968c14.623 0 26.495-11.839 26.495-26.462v-379.56c0-14.655-11.84-26.495-26.495-26.495zM512 427.043h-459.043v-326.635h61.82v-41.981l41.981 41.981h355.21v326.635z" horiz-adv-x="565" />
<glyph unicode="&#x78;" d="M73.457 467.394l425.981-425.959c16.786-16.807 16.786-44.044 0-60.873-16.807-16.786-44.044-16.786-60.873 0l-425.959 425.981c-16.807 16.807-16.807 44.044 0 60.851s44.066 16.807 60.852 0zM499.438 406.543l-425.981-425.981c-16.786-16.786-44.023-16.786-60.852 0-16.807 16.807-16.807 44.044 0 60.873l425.959 425.959c16.807 16.807 44.044 16.807 60.873 0 16.786-16.807 16.786-44.044 0-60.851z" />
<glyph unicode="&#x79;" d="M39.843-32c10.193 0 20.386 3.937 28.178 11.777l235.35 244.199-235.35 244.215c-15.569 15.745-40.772 15.745-56.342 0-15.569-15.714-15.569-41.22 0-56.95l185.233-187.265-185.25-187.25c-15.569-15.714-15.569-41.204 0-56.95 7.793-7.825 17.985-11.777 28.178-11.777z" horiz-adv-x="304" />
<glyph unicode="&#x7a;" d="M260.505-32c-10.081 0-20.162 3.937-27.843 11.793l-232.662 244.183 232.662 244.215c15.377 15.729 40.308 15.729 55.701 0s15.394-41.22 0-56.95l-183.121-187.265 183.105-187.217c15.394-15.745 15.394-41.22 0-56.95-7.68-7.856-17.762-11.809-27.842-11.809z" horiz-adv-x="300" />
<glyph unicode="&#x7b;" d="M256 480c-141.369 0-256-114.603-256-256s114.631-256 256-256c141.398 0 256 114.603 256 256s-114.603 256-256 256zM369.579 148.31l-37.859-37.859-75.719 75.719-75.719-75.776-37.859 37.86 75.719 75.748-75.719 75.748 37.859 37.86 75.719-75.719 75.719 75.719 37.86-37.86-75.719-75.719 75.719-75.719z" />
<glyph unicode="&#x7c;" d="M176 480c-97.184 0-176-78.816-176-176 0-112 118.752-198.592 176-336 57.248 137.44 176 224 176 336 0 97.184-78.816 176-176 176zM32.576 340.512h109.952l33.504 107.808 33.504-107.808h109.952l-88.512-59.584 47.2-103.264-102.112 64.192-102.048-64.192 47.2 103.264-88.64 59.584z" horiz-adv-x="352" />
<glyph unicode="&#x7d;" d="M256 480c-141.369 0-256-114.603-256-256s114.631-256 256-256c141.398 0 256 114.603 256 256s-114.603 256-256 256zM228.779 126.378l-20.11 20.139-80.469 80.441 40.221 40.249 60.359-60.387 114.802 114.802 40.221-40.221-155.022-155.022z" />
<glyph unicode="&#x7e;" d="M204.8 166.989v-88.064c0-4.711 3.84-8.525 8.55-8.525h68.25c4.711 0 8.525 3.815 8.525 8.525v88.064c59.75 25.575 59.75 95.667 59.75 133.811 0 4.71-3.815 8.525-8.525 8.525h-187.75c-4.71 0-8.525-3.815-8.525-8.525 0-38.17 0-108.237 59.725-133.811zM247.475 326.4c42.343 0 76.8 34.458 76.8 76.8s-34.457 76.8-76.8 76.8c-42.368 0-76.8-34.457-76.8-76.8s34.458-76.8 76.8-76.8zM334.106 151.45c-4.711 0.538-8.909-2.816-9.421-7.501-0.538-4.685 2.841-8.909 7.526-9.447 94.31-10.675 162.765-41.19 162.765-72.627 0-45.261-125.927-76.8-238.951-76.8s-238.951 31.539-238.951 76.8c0 31.437 68.48 61.978 162.816 72.627 4.685 0.538 8.038 4.762 7.526 9.447-0.537 4.685-4.762 8.064-9.447 7.526-108.109-12.237-177.971-47.411-177.971-89.625 0-58.752 130.15-93.85 256-93.85s256 35.123 256 93.875c0.026 42.189-69.811 77.363-177.894 89.575zM256 36.25c-93.875 0-145.075 22.553-145.075 34.125 0 6.707 18.893 20.352 69.606 28.544 4.659 0.743 7.808 5.12 7.065 9.779-0.768 4.659-5.197 7.834-9.779 7.065-31.334-5.043-83.942-17.639-83.942-45.363 0-33.613 81.561-51.2 162.125-51.2s162.15 17.587 162.15 51.2c0 27.648-52.275 40.243-83.43 45.312-4.736 0.768-9.037-2.406-9.779-7.065s2.406-9.037 7.040-9.779c50.329-8.166 69.094-21.786 69.094-28.442 0-11.623-51.2-34.176-145.075-34.176z" />
<glyph unicode="&#xe600;" d="M162.673 147.577c-4.175-16.632-8.373-34.070-12.73-51.1-4.3-16.802-8.066-33.843-14.322-49.28-10.364-25.584-23.513-50.281-40.782-70.279-11.467-13.309-9.021-7.986-12.479-7.269-2.639 0.546-2.867 3.128-3.379 6.86-2.81 20.34-0.898 43.82 0.148 66.65 1.183 26.027 6.655 47.653 11.74 69.267 9.669 41.18 18.884 81.541 28.644 122.995 0.648 2.753 2.389 7.315 1.786 8.885-4.414 11.512-7.292 21.841-8.543 33.923-1.456 13.878-0.341 26.835 2.787 38.78 5.506 21.102 18.213 39.827 37.791 46.652 12.445 4.334 26.244 2.366 34.617-2.628 8.623-5.153 14.538-13.298 17.303-24.845 2.946-12.297 0.774-26.972-1.593-37.756-5.324-24.31-12.32-42.58-18.702-66.048-3.151-11.637-6.723-23.594-3.777-36.152 2.708-11.535 8.714-19.476 16.904-25.447 8.498-6.177 18.542-9.579 32.421-9.089 24.504 0.865 41.533 16.517 52.909 31.306 18.201 23.627 29.236 55.548 33.422 93.498 1.353 12.24 2.332 26.312 1.388 40.202-1.74 25.618-9.749 46.219-22.478 62.202-12.104 15.198-29.259 27.313-50.121 34.127-20.692 6.757-49.348 9.010-74.796 4.642-46.231-7.918-78.856-34.207-98.070-70.473-10.056-19.021-16.711-40.862-16.711-68.061 0-20.954 5.176-37.21 13.526-49.871 2.65-4.027 6.552-7.338 9.157-11.922 3.686-6.495-0.569-16.188-2.389-23.23-2.184-8.475-2.423-20.192-12.32-20.385-4.096-0.079-9.248 2.923-12.73 4.846-26.039 14.379-41.852 40.566-48.336 74.522-3.947 20.613-3.936 44.684 0 64.625 3.8 19.271 10.875 37.062 18.701 51.498 16.256 29.986 40.054 53.966 69.016 71.099 22.273 13.161 47.403 22.399 77.97 26.847 10.147 1.479 20.636 2.093 32.023 2.628 33.285 1.57 63.545-5.973 86.331-16.154 24.048-10.75 43.239-25.072 59.473-42.807 16.711-18.258 28.894-39.508 36.607-66.048 4.015-13.799 7.929-28.587 7.929-45.639 0-17.109-3.618-32.182-6.143-47.255-9.454-56.435-36.3-102.587-76.582-128.853-9.772-6.382-21.58-12.24-35.014-16.154-13.31-3.879-28.485-6.791-44.752-5.654-15.801 1.092-28.713 5.38-39.577 11.512-10.773 6.075-19.839 13.537-26.267 24.834z" horiz-adv-x="391" />
<glyph unicode="&#xe601;" d="M502.614 351.457v-90.849h-37.223v90.849h-93.081v37.123h93.081v90.862h37.222v-90.849h93.068v-37.135h-93.068zM245.181 443.435c33.032-18.289 52.386-47.973 52.386-86.782 0-32.623-20.149-58.313-46.113-78.264-25.344-19.442-30.167-27.613-30.167-44.154 0-14.098 27.154-38.127 41.352-47.985 41.5-28.841 53.763-55.598 53.763-100.272 0-55.747-53.763-118.003-153.217-118.003-87.253 0.025-163.186 41.76-163.186 97.483 0 56.59 69.485 111.209 156.714 111.209 9.51 0 18.214 0.385 27.228 0.385-11.94 11.408-21.376 25.605-21.376 42.851 0 10.217 3.323 20.496 7.96 29.25-4.737-0.335-9.572 0.434-14.556 0.434-71.668 0-119.677 51.804-119.677 113.837 0.013 60.707 66.311 116.577 136.75 116.577 39.269 0 157.098 0 157.098 0l-35.151-36.565h-49.808zM173.328 162.233c-60.297 0.62-114.32-36.119-114.32-80.26 0-45.022 43.558-77.954 103.855-77.954 84.761 0 114.32 30.613 114.32 75.647 0 5.431-0.695 10.75-1.922 15.933-6.634 25.481-30.105 38.091-62.851 60.446-11.903 3.819-25.009 6.026-39.083 6.187zM241.090 355.959c-6.993 52.188-47.216 94.085-87.7 95.275-40.471 1.166-67.613-38.772-60.608-90.986 6.981-52.2 45.455-95.498 85.926-96.676 40.459-1.19 69.361 40.161 62.38 92.387z" horiz-adv-x="596" />
<glyph unicode="&#xe602;" d="M1024 480l-512-512-512 512z" horiz-adv-x="1024" />
<glyph unicode="&#xe603;" d="M512 24.889c0-31.402-25.486-56.889-56.889-56.889-15.702 0-29.923 6.372-40.221 16.668l-71.908 71.908c-33.877-20.025-73.245-31.687-115.428-31.687-125.668 0-227.555 101.888-227.555 227.555s101.888 227.555 227.555 227.555c125.668 0 227.555-101.888 227.555-227.555 0-42.183-11.69-81.55-31.687-115.456l71.907-71.907c10.297-10.269 16.668-24.49 16.668-40.192zM227.555 423.111c-94.237 0-170.667-76.43-170.667-170.667 0-94.265 76.43-170.667 170.667-170.667s170.666 76.402 170.666 170.667c0 94.237-76.43 170.667-170.667 170.667zM322.361 224h-66.361v-66.389c0-15.702-12.743-28.445-28.445-28.445s-28.445 12.743-28.445 28.445v66.389h-66.361c-15.701 0-28.445 12.743-28.445 28.445s12.743 28.445 28.445 28.445h66.361v66.361c0 15.702 12.743 28.445 28.445 28.445s28.445-12.743 28.445-28.445v-66.361h66.361c15.702 0 28.445-12.743 28.445-28.445s-12.714-28.445-28.445-28.445z" />
<glyph unicode="&#xe604;" d="M255.987 480c-141.177 0-255.987-114.836-255.987-255.987 0-139.359 114.734-254.196 255.808-255.987h2.995c62 0 102.113 22.706 114.503 61.334 4.3 13.516 3.379 25.522-1.868 37.015 18.072 10.47 37.374 32.587 43.057 39.089 12.364 14.053 4.634 31.743 0.384 41.265l-1.562 3.916c-4.94 12.902-70.422 34.84-75.875 35.377l-4.403-0.154c-9.19-1.485-27.135-20.658-48.74-38.347-22.988 11.724-44.798 29.669-59.492 47.383-15.615 19.122-25.675 38.782-32.178 62.308 24.677 20.197 43.697 36.606 44.696 46.769 0.537 5.478-8.217 73.878-19.967 81.225l-3.43 2.406c-7.373 5.197-18.738 13.107-31.487 10.931-3.2-0.538-6.272-1.639-9.19-3.302-8.755-5.043-39.013-26.495-49.38-45.156-6.323-11.622-22.45-107.566 55.319-202.077 65.993-80.534 141.305-88.315 170.615-87.368 1.945-6.784 2.688-13.413 0.691-19.608-6.682-20.94-38.322-42.57-94.255-41.060-123.693 1.613-224.245 102.087-224.245 224.040 0 123.514 100.5 223.989 223.989 223.989s223.989-100.475 223.989-223.989c0-30.283-9.676-73.391-28.133-108.282-4.94-9.394-1.997-20.966 6.81-26.827l1.305-0.921 8.243-1.51 6.681 4.915c24.293 41.24 37.092 95.483 37.092 132.627 0 141.151-114.81 255.987-255.987 255.987z" />
</font>
</defs>
</svg>
